<?xml version="1.0" encoding="UTF-8"?>
<svg version="1.1" xmlns="http://www.w3.org/2000/svg" width="1000" height="1000">
<path d="M0 0 C330 0 660 0 1000 0 C1000 330 1000 660 1000 1000 C670 1000 340 1000 0 1000 C0 670 0 340 0 0 Z " fill="#941C6A" transform="translate(0,0)"/>
<path d="M0 0 C0.93221341 0.00037972 1.86442682 0.00075944 2.82488912 0.00115067 C3.89628261 -0.00084038 4.9676761 -0.00283143 6.07153606 -0.00488281 C7.26314435 -0.00196997 8.45475263 0.00094287 9.68247026 0.00394398 C10.93697526 0.00308955 12.19148026 0.00223513 13.48400056 0.00135481 C16.98203577 -0.0008925 20.48004065 0.00313434 23.97807199 0.00813287 C27.74427911 0.01243382 31.5104844 0.01099121 35.27669328 0.0102306 C41.80719531 0.00970514 48.33768737 0.01285425 54.86818689 0.01846844 C64.31030206 0.02658044 73.75241239 0.02919835 83.19453066 0.03045643 C98.51212276 0.03264742 113.82970954 0.03930879 129.14729875 0.04875904 C144.03076202 0.05793194 158.91422385 0.06501337 173.79768938 0.06926686 C174.7144343 0.06952958 175.63117922 0.0697923 176.57570428 0.07006299 C181.17454352 0.07136798 185.77338276 0.0726317 190.37222201 0.07387489 C228.55058808 0.08424898 266.72894754 0.10214294 304.90730852 0.1241985 C304.90730852 11.6741985 304.90730852 23.2241985 304.90730852 35.1241985 C316.12730852 35.1241985 327.34730852 35.1241985 338.90730852 35.1241985 C338.92989187 82.62517132 338.94780567 130.12614286 338.95837385 177.62711998 C338.95962463 183.22876661 338.96091894 188.83041322 338.96224016 194.43205982 C338.96263363 196.10491532 338.96263363 196.10491532 338.96303504 197.81156588 C338.9673922 215.89453323 338.97528 233.97749742 338.98446131 252.06046288 C338.99379658 270.60058097 338.99936386 289.14069739 339.00139701 307.68081772 C339.00277251 319.13084287 339.00712451 330.58085908 339.01522499 342.03088147 C339.02049087 349.87126507 339.02211317 357.71164401 339.0208099 365.55202924 C339.02016627 370.08268042 339.0211868 374.61331593 339.02651399 379.14396435 C339.03134742 383.28465469 339.03164755 387.42531868 339.02820741 391.56601018 C339.02778166 393.07072919 339.02907788 394.57544978 339.0321917 396.08016562 C339.03615483 398.11206378 339.03346525 400.14397178 339.03035635 402.17587143 C339.03073607 403.30857718 339.03111579 404.44128292 339.03150702 405.60831308 C338.90730852 408.1241985 338.90730852 408.1241985 337.90730852 409.1241985 C335.5341793 409.28390096 333.18589478 409.3835191 330.80965227 409.44060475 C329.51277483 409.47871266 328.21589739 409.51682057 326.87972063 409.55608326 C325.21819963 409.59918629 323.55667864 409.64228932 321.84480852 409.6866985 C316.58543352 409.8310735 311.32605852 409.9754485 305.90730852 410.1241985 C305.57730852 421.0141985 305.24730852 431.9041985 304.90730852 443.1241985 C293.68730852 443.1241985 282.46730852 443.1241985 270.90730852 443.1241985 C270.90730852 454.3441985 270.90730852 465.5641985 270.90730852 477.1241985 C237.24730852 477.1241985 203.58730852 477.1241985 168.90730852 477.1241985 C168.90730852 509.7941985 168.90730852 542.4641985 168.90730852 576.1241985 C101.58730852 576.1241985 34.26730852 576.1241985 -35.09269148 576.1241985 C-35.09269148 487.3541985 -35.09269148 398.5841985 -35.09269148 307.1241985 C-45.98269148 307.1241985 -56.87269148 307.1241985 -68.09269148 307.1241985 C-70.01115598 305.205734 -69.21563028 302.3451522 -69.22177279 299.79208899 C-69.21885995 298.87284708 -69.21594711 297.95360518 -69.212946 297.00650746 C-69.21380042 296.03785112 -69.21465485 295.06919479 -69.21553516 294.07118523 C-69.21719291 290.79904306 -69.21166379 287.52695124 -69.20621687 284.25481373 C-69.20593504 281.91972056 -69.20609266 279.58462731 -69.20665938 277.24953419 C-69.2069475 270.88821834 -69.20104842 264.52692115 -69.19408542 258.16560966 C-69.18848492 252.19780689 -69.1874636 246.23000487 -69.18643355 240.26219983 C-69.18424272 228.43860795 -69.1775818 216.61502296 -69.16813093 204.79143482 C-69.15895761 193.30315393 -69.15187639 181.81487489 -69.14762312 170.32659107 C-69.1473604 169.61893585 -69.14709767 168.91128062 -69.14682699 168.18218129 C-69.14552199 164.63222705 -69.14425827 161.0822728 -69.14301509 157.53231853 C-69.13264152 128.06294063 -69.11474793 98.59356995 -69.09269148 69.1241985 C-58.20269148 68.7941985 -47.31269148 68.4641985 -36.09269148 68.1241985 C-35.76269148 56.9041985 -35.43269148 45.6841985 -35.09269148 34.1241985 C-25.52269148 33.7941985 -15.95269148 33.4641985 -6.09269148 33.1241985 C-5.59769148 32.1341985 -5.59769148 32.1341985 -5.09269148 31.1241985 C-4.43269148 31.1241985 -3.77269148 31.1241985 -3.09269148 31.1241985 C-3.0979283 30.22064625 -3.10316511 29.317094 -3.10856062 28.38616139 C-3.12556834 25.0446836 -3.13812482 21.70325158 -3.14762312 18.36174732 C-3.15266249 16.91349777 -3.15949401 15.46525333 -3.16813093 14.01702076 C-3.18021395 11.93945262 -3.18592359 9.86195152 -3.19034773 7.78435475 C-3.19558455 6.53275563 -3.20082136 5.2811565 -3.20621687 3.99163014 C-3.05536215 0.18133174 -3.05536215 0.18133174 0 0 Z " fill="#935D08" transform="translate(358.09269148111343,423.8758015036583)"/>
<path d="M0 0 C0.93221341 0.00037972 1.86442682 0.00075944 2.82488912 0.00115067 C3.89628261 -0.00084038 4.9676761 -0.00283143 6.07153606 -0.00488281 C7.26314435 -0.00196997 8.45475263 0.00094287 9.68247026 0.00394398 C10.93697526 0.00308955 12.19148026 0.00223513 13.48400056 0.00135481 C16.98203577 -0.0008925 20.48004065 0.00313434 23.97807199 0.00813287 C27.74427911 0.01243382 31.5104844 0.01099121 35.27669328 0.0102306 C41.80719531 0.00970514 48.33768737 0.01285425 54.86818689 0.01846844 C64.31030206 0.02658044 73.75241239 0.02919835 83.19453066 0.03045643 C98.51212276 0.03264742 113.82970954 0.03930879 129.14729875 0.04875904 C144.03076202 0.05793194 158.91422385 0.06501337 173.79768938 0.06926686 C174.7144343 0.06952958 175.63117922 0.0697923 176.57570428 0.07006299 C181.17454352 0.07136798 185.77338276 0.0726317 190.37222201 0.07387489 C228.55058808 0.08424898 266.72894754 0.10214294 304.90730852 0.1241985 C304.90730852 11.6741985 304.90730852 23.2241985 304.90730852 35.1241985 C316.12730852 35.1241985 327.34730852 35.1241985 338.90730852 35.1241985 C338.90730852 158.2141985 338.90730852 281.3041985 338.90730852 408.1241985 C327.68730852 408.1241985 316.46730852 408.1241985 304.90730852 408.1241985 C304.90730852 363.5741985 304.90730852 319.0241985 304.90730852 273.1241985 C281.80730852 273.1241985 258.70730852 273.1241985 234.90730852 273.1241985 C235.23730852 261.9041985 235.56730852 250.6841985 235.90730852 239.1241985 C219.57230852 239.6191985 219.57230852 239.6191985 202.90730852 240.1241985 C202.94690763 250.61043014 202.94690763 250.61043014 202.99739641 261.09661061 C203.00114275 263.04192677 203.00114275 263.04192677 203.00496477 265.02654225 C203.01008074 265.71236378 203.0151967 266.39818531 203.0204677 267.10478932 C203.02077906 268.77835081 202.96953689 270.4517943 202.90730852 272.1241985 C201.90730852 273.1241985 201.90730852 273.1241985 199.66029829 273.24724633 C198.15731483 273.24586364 198.15731483 273.24586364 196.62396806 273.24445301 C195.47826845 273.24582768 194.33256883 273.24720234 193.15215105 273.24861866 C191.88404588 273.24502339 190.61594072 273.24142811 189.30940813 273.23772389 C187.96937621 273.23744201 186.62934413 273.23759975 185.2893123 273.23816639 C181.64071414 273.23845436 177.99214857 273.2325577 174.34355801 273.22559243 C170.53453335 273.21935884 166.72550802 273.21875509 162.91647905 273.21756703 C155.69873098 273.21445373 148.48099797 273.20624036 141.26325655 273.19621754 C131.51331879 273.1829711 121.76337693 273.17755648 112.01343244 273.17171532 C96.64471317 273.16230047 81.27602571 273.14238155 65.90730852 273.1241985 C65.90730852 239.4641985 65.90730852 205.8041985 65.90730852 171.1241985 C111.11730852 171.1241985 156.32730852 171.1241985 202.90730852 171.1241985 C202.90730852 182.3441985 202.90730852 193.5641985 202.90730852 205.1241985 C213.79730852 204.7941985 224.68730852 204.4641985 235.90730852 204.1241985 C236.23730852 182.0141985 236.56730852 159.9041985 236.90730852 137.1241985 C259.34730852 136.7941985 281.78730852 136.4641985 304.90730852 136.1241985 C304.90730852 114.0141985 304.90730852 91.9041985 304.90730852 69.1241985 C226.36730852 69.1241985 147.82730852 69.1241985 66.90730852 69.1241985 C66.90730852 80.0141985 66.90730852 90.9041985 66.90730852 102.1241985 C66.57730852 102.4541985 66.24730852 102.7841985 65.90730852 103.1241985 C55.01730852 103.1241985 44.12730852 103.1241985 32.90730852 103.1241985 C32.90730852 170.4441985 32.90730852 237.7641985 32.90730852 307.1241985 C21.68730852 307.1241985 10.46730852 307.1241985 -1.09269148 307.1241985 C-1.09269148 395.8941985 -1.09269148 484.6641985 -1.09269148 576.1241985 C-12.31269148 576.1241985 -23.53269148 576.1241985 -35.09269148 576.1241985 C-35.09269148 487.3541985 -35.09269148 398.5841985 -35.09269148 307.1241985 C-45.98269148 307.1241985 -56.87269148 307.1241985 -68.09269148 307.1241985 C-70.01115598 305.205734 -69.21563028 302.3451522 -69.22177279 299.79208899 C-69.21885995 298.87284708 -69.21594711 297.95360518 -69.212946 297.00650746 C-69.21380042 296.03785112 -69.21465485 295.06919479 -69.21553516 294.07118523 C-69.21719291 290.79904306 -69.21166379 287.52695124 -69.20621687 284.25481373 C-69.20593504 281.91972056 -69.20609266 279.58462731 -69.20665938 277.24953419 C-69.2069475 270.88821834 -69.20104842 264.52692115 -69.19408542 258.16560966 C-69.18848492 252.19780689 -69.1874636 246.23000487 -69.18643355 240.26219983 C-69.18424272 228.43860795 -69.1775818 216.61502296 -69.16813093 204.79143482 C-69.15895761 193.30315393 -69.15187639 181.81487489 -69.14762312 170.32659107 C-69.1473604 169.61893585 -69.14709767 168.91128062 -69.14682699 168.18218129 C-69.14552199 164.63222705 -69.14425827 161.0822728 -69.14301509 157.53231853 C-69.13264152 128.06294063 -69.11474793 98.59356995 -69.09269148 69.1241985 C-58.20269148 68.7941985 -47.31269148 68.4641985 -36.09269148 68.1241985 C-35.76269148 56.9041985 -35.43269148 45.6841985 -35.09269148 34.1241985 C-25.52269148 33.7941985 -15.95269148 33.4641985 -6.09269148 33.1241985 C-5.59769148 32.1341985 -5.59769148 32.1341985 -5.09269148 31.1241985 C-4.43269148 31.1241985 -3.77269148 31.1241985 -3.09269148 31.1241985 C-3.0979283 30.22064625 -3.10316511 29.317094 -3.10856062 28.38616139 C-3.12556834 25.0446836 -3.13812482 21.70325158 -3.14762312 18.36174732 C-3.15266249 16.91349777 -3.15949401 15.46525333 -3.16813093 14.01702076 C-3.18021395 11.93945262 -3.18592359 9.86195152 -3.19034773 7.78435475 C-3.19558455 6.53275563 -3.20082136 5.2811565 -3.20621687 3.99163014 C-3.05536215 0.18133174 -3.05536215 0.18133174 0 0 Z " fill="#020101" transform="translate(358.09269148111343,423.8758015036583)"/>
<path d="M0 0 C11.55 0 23.1 0 35 0 C35 11.22 35 22.44 35 34 C23.78 34 12.56 34 1 34 C1 45.22 1 56.44 1 68 C-32.66 68 -66.32 68 -101 68 C-101 100.67 -101 133.34 -101 167 C-112.22 167 -123.44 167 -135 167 C-135 123.11 -135 79.22 -135 34 C-90.45 34 -45.9 34 0 34 C0 22.78 0 11.56 0 0 Z " fill="#000000" transform="translate(628,833)"/>
<path d="M0 0 C13.1514933 -0.02254879 26.30297386 -0.04091379 39.45448208 -0.05181217 C45.56056369 -0.05704156 51.66663144 -0.0641402 57.77270508 -0.07543945 C63.66005147 -0.08626637 69.54738449 -0.09227642 75.43474007 -0.09487724 C77.68632277 -0.09673185 79.93790469 -0.10035313 82.18948174 -0.10573006 C85.33133427 -0.11293789 88.47313083 -0.11399105 91.61499023 -0.11352539 C93.02623421 -0.1189183 93.02623421 -0.1189183 94.46598816 -0.12442017 C100.88594784 -0.11405216 100.88594784 -0.11405216 102 1 C102 11.56 102 22.12 102 33 C68.34 33 34.68 33 0 33 C0 22.11 0 11.22 0 0 Z " fill="#020000" transform="translate(459,527)"/>
<path d="M0 0 C1.80868813 0.00333092 1.80868813 0.00333092 3.65391541 0.00672913 C4.64899864 0.00651009 4.64899864 0.00651009 5.66418457 0.00628662 C7.86644207 0.00698571 10.06861596 0.01477787 12.27085876 0.02259827 C13.79400588 0.02446246 15.31715359 0.02588636 16.84030151 0.02688599 C20.85657903 0.03071105 24.87282059 0.04054124 28.88908386 0.05158997 C33.70399991 0.06359902 38.51892795 0.06820638 43.33385468 0.07404327 C50.65532899 0.08375301 57.97672436 0.10290961 65.29820251 0.12025452 C65.29820251 11.67025452 65.29820251 23.22025452 65.29820251 35.12025452 C42.52820251 35.12025452 19.75820251 35.12025452 -3.70179749 35.12025452 C-3.70179749 0.1647636 -3.70179749 0.1647636 0 0 Z " fill="#010001" transform="translate(563.7017974853516,729.8797454833984)"/>
<path d="M0 0 C8.71844003 -0.02312611 17.43686956 -0.04091646 26.15533352 -0.05181217 C30.20325742 -0.05704041 34.25116041 -0.06413699 38.29907227 -0.07543945 C42.20235971 -0.08627043 46.10562699 -0.09227728 50.0089283 -0.09487724 C51.50133647 -0.09673111 52.99374348 -0.100351 54.48614311 -0.10573006 C56.56948139 -0.11294331 58.65273531 -0.11399083 60.73608398 -0.11352539 C61.92411118 -0.115746 63.11213837 -0.11796661 64.33616638 -0.12025452 C67 0 67 0 68 1 C68.1007812 3.36398468 68.13973215 5.69811311 68.1328125 8.0625 C68.13376923 8.76898682 68.13472595 9.47547363 68.13571167 10.20336914 C68.13639333 11.69970793 68.13454005 13.19604967 68.13037109 14.69238281 C68.12502257 16.99030157 68.13031651 19.28802486 68.13671875 21.5859375 C68.13605797 23.03645877 68.1347768 24.48697991 68.1328125 25.9375 C68.13483673 26.6291626 68.13686096 27.3208252 68.13894653 28.03344727 C68.11495224 32.88504776 68.11495224 32.88504776 67 34 C64.94987154 34.09939626 62.89628608 34.12799553 60.84375 34.12939453 C59.52568359 34.13254669 58.20761719 34.13569885 56.84960938 34.13894653 C55.39973925 34.13715675 53.94986942 34.1351058 52.5 34.1328125 C51.02408838 34.13348557 49.54817687 34.13445563 48.07226562 34.13571167 C44.97524971 34.13718848 41.87826258 34.13503464 38.78125 34.13037109 C34.80291451 34.1246738 30.82464648 34.1279529 26.84631348 34.13394356 C23.79752083 34.13754963 20.74874429 34.13641037 17.69995117 34.13381577 C16.23266594 34.13314662 14.76537926 34.13397447 13.2980957 34.13629532 C11.25081407 34.13882257 9.20352734 34.1342906 7.15625 34.12939453 C5.40538086 34.12820114 5.40538086 34.12820114 3.61914062 34.12698364 C1 34 1 34 0 33 C-0.08843793 30.55169574 -0.11528752 28.13179401 -0.09765625 25.68359375 C-0.0962413 24.95253922 -0.09482635 24.22148468 -0.09336853 23.46827698 C-0.08775408 21.12464368 -0.07519922 18.78110461 -0.0625 16.4375 C-0.05748686 14.85221492 -0.05292363 13.26692834 -0.04882812 11.68164062 C-0.03777997 7.7877239 -0.02050572 3.89387795 0 0 Z " fill="#040100" transform="translate(493,799)"/>
<path d="M0 0 C22.11 0 44.22 0 67 0 C67 10.89 67 21.78 67 33 C44.89 33 22.78 33 0 33 C0 22.11 0 11.22 0 0 Z " fill="#FCFCFC" transform="translate(459,629)"/>
<path d="M0 0 C78.54 0 157.08 0 238 0 C238.33 22.44 238.66 44.88 239 68 C216.23 68 193.46 68 170 68 C170 90.11 170 112.22 170 135 C169.67 135 169.34 135 169 135 C169 112.56 169 90.12 169 67 C191.44 67 213.88 67 237 67 C237 45.22 237 23.44 237 1 C236.34 1 235.68 1 235 1 C235 1.66 235 2.32 235 3 C158.11 3 81.22 3 2 3 C2 13.23 2 23.46 2 34 C1.34 34 0.68 34 0 34 C0 34.66 0 35.32 0 36 C-10.23 36 -20.46 36 -31 36 C-30.99111755 38.50926086 -30.98223511 41.01852173 -30.9730835 43.6038208 C-30.89143402 67.20724638 -30.83185841 90.81065338 -30.79275131 114.41418839 C-30.77211046 126.55010802 -30.74396072 138.68592414 -30.69824219 150.82177734 C-30.65842111 161.39719293 -30.63257827 171.97253356 -30.62364602 182.54802203 C-30.61842327 188.14967547 -30.6061162 193.75111446 -30.57707977 199.35269928 C-30.54998547 204.62217267 -30.54154291 209.89134271 -30.54756927 215.16087914 C-30.54646636 217.09750961 -30.538477 219.03414994 -30.5231781 220.97072029 C-30.50334373 223.61027086 -30.50803659 226.24866867 -30.51898193 228.88824463 C-30.50733057 229.65867387 -30.4956792 230.42910311 -30.48367476 231.22287869 C-30.52293149 234.71334288 -30.74920926 236.65877512 -32.84256363 239.50698471 C-35 241 -35 241 -38 241 C-38.33 241.66 -38.66 242.32 -39 243 C-39.66 242.34 -40.32 241.68 -41 241 C-48.59 241 -56.18 241 -64 241 C-64.33 328.78 -64.66 416.56 -65 507 C-65.99 507 -66.98 507 -68 507 C-68 418.23 -68 329.46 -68 238 C-56.78 238 -45.56 238 -34 238 C-34 170.68 -34 103.36 -34 34 C-23.11 33.67 -12.22 33.34 -1 33 C-0.67 22.11 -0.34 11.22 0 0 Z " fill="#7B5520" transform="translate(425,493)"/>
<path d="M0 0 C0.33 0 0.66 0 1 0 C1.02505615 0.90355225 1.0501123 1.80710449 1.07592773 2.73803711 C1.17087317 6.0796428 1.27011621 9.42106252 1.37231445 12.76245117 C1.4157163 14.2106424 1.45738744 15.65888654 1.49731445 17.10717773 C1.55489062 19.18489559 1.61862028 21.26234573 1.68359375 23.33984375 C1.72025146 24.59144287 1.75690918 25.84304199 1.79467773 27.13256836 C1.67803906 29.89630504 1.67803906 29.89630504 3 31 C5.3285812 31.12227796 7.66060554 31.17982691 9.9921875 31.2109375 C11.43360506 31.23900833 12.87501116 31.26767281 14.31640625 31.296875 C16.59651342 31.33814391 18.87640714 31.37501626 21.15673828 31.40136719 C23.35234191 31.42896091 25.54696199 31.47483345 27.7421875 31.5234375 C29.0607373 31.54325684 30.37928711 31.56307617 31.73779297 31.58349609 C35 32 35 32 36.89111328 33.27978516 C39.29063182 37.00215583 39.12796852 40.9036564 39.13701439 45.22821045 C39.14208893 46.51559742 39.14716347 47.80298439 39.15239179 49.12938309 C39.15299344 50.56119025 39.15349253 51.99299746 39.15390015 53.42480469 C39.15791544 54.94333382 39.16235377 56.46186187 39.1671797 57.98038864 C39.17914272 62.15940719 39.18479297 66.3384142 39.18936086 70.51744652 C39.19531763 75.02193331 39.20692694 79.52640631 39.21765137 84.03088379 C39.24216821 94.90955899 39.25679866 105.78823875 39.26971143 116.66693306 C39.27342299 119.73799291 39.27739622 122.8090523 39.2814641 125.88011169 C39.30669316 144.94173737 39.32875103 164.00336376 39.34119225 183.06500244 C39.34412203 187.4795329 39.34708369 191.89406334 39.35009766 196.30859375 C39.35084371 197.40582874 39.35158976 198.50306373 39.35235842 199.63354826 C39.3650247 217.42652126 39.39826596 235.21939462 39.43989949 253.012321 C39.48226905 271.26894797 39.50588124 289.52552383 39.51111281 307.78219986 C39.51453188 318.03728171 39.52634593 328.29220765 39.55921555 338.54724121 C39.58714843 347.27638651 39.59824508 356.00534392 39.58702008 364.73453045 C39.58181665 369.19079031 39.58482891 373.64665629 39.60948563 378.1028595 C39.63185205 382.17899697 39.63133771 386.25445475 39.61228175 390.33060312 C39.60946396 391.80834693 39.61517831 393.28613561 39.63009469 394.76380682 C39.64908042 396.76638177 39.63447766 398.76919213 39.61803246 400.77178955 C39.62006725 402.44310377 39.62006725 402.44310377 39.62214315 404.14818192 C38.79853775 407.92347506 37.11230468 408.85958249 34 411 C33.67 411.66 33.34 412.32 33 413 C30.36 413 27.72 413 25 413 C25 412.34 25 411.68 25 411 C18.07 411.33 11.14 411.66 4 412 C3.12819203 417.92380345 3.12819203 417.92380345 3.0078125 423.69921875 C3.02457031 424.51583984 3.04132812 425.33246094 3.05859375 426.17382812 C3.10317984 427.86154285 3.1553696 429.54907244 3.21484375 431.23632812 C3.23611328 432.45545898 3.23611328 432.45545898 3.2578125 433.69921875 C3.2798877 434.42971436 3.30196289 435.16020996 3.32470703 435.9128418 C2.90880248 438.58620122 1.73811798 439.97219569 0 442 C-0.02465288 437.31860746 -0.04283739 432.63725241 -0.05493164 427.95581055 C-0.05997157 426.36205386 -0.0668035 424.76830181 -0.07543945 423.17456055 C-0.08751999 420.88849747 -0.09323155 418.60249533 -0.09765625 416.31640625 C-0.10281754 415.59973282 -0.10797882 414.88305939 -0.11329651 414.14466858 C-0.11349263 412.42936328 -0.06192007 410.71418734 0 409 C7.79244649 401.20755351 21.98519351 407.3442127 33 407 C33.33 283.91 33.66 160.82 34 34 C22.78 34 11.56 34 0 34 C0 22.78 0 11.56 0 0 Z " fill="#871B5C" transform="translate(663,425)"/>
<path d="M0 0 C11.55 0 23.1 0 35 0 C35 11.22 35 22.44 35 34 C23.78 34 12.56 34 1 34 C1 45.22 1 56.44 1 68 C-32.66 68 -66.32 68 -101 68 C-101 100.67 -101 133.34 -101 167 C-101.99 167 -102.98 167 -104 167 C-104.04626319 154.12655979 -104.08183851 141.25313924 -104.10362434 128.37963295 C-104.11407843 122.40247291 -104.12826721 116.42536958 -104.15087891 110.44824219 C-104.17254942 104.68408015 -104.18455637 98.91997278 -104.18975449 93.15577316 C-104.19346068 90.95245884 -104.20069754 88.74914763 -104.21146011 86.54585648 C-104.22589807 83.46881808 -104.22798118 80.39200801 -104.22705078 77.31494141 C-104.23424133 76.39640884 -104.24143188 75.47787628 -104.24884033 74.5315094 C-104.246091 73.69575882 -104.24334167 72.86000824 -104.24050903 71.99893188 C-104.24235262 71.27071543 -104.24419621 70.54249897 -104.24609566 69.79221535 C-104 68 -104 68 -102 66 C-100.19216728 65.73828697 -100.19216728 65.73828697 -97.96310425 65.7215271 C-97.11893951 65.71036362 -96.27477478 65.69920013 -95.4050293 65.68769836 C-94.477146 65.68553818 -93.5492627 65.68337799 -92.59326172 65.68115234 C-91.12978806 65.66608391 -91.12978806 65.66608391 -89.63674927 65.65071106 C-86.4010682 65.61973735 -83.16547038 65.60280457 -79.9296875 65.5859375 C-77.69051388 65.56723726 -75.45134739 65.54766473 -73.21218872 65.5272522 C-67.31032505 65.47580411 -61.40843849 65.43624635 -55.50646973 65.39910889 C-49.4873279 65.35914853 -43.46828228 65.30801995 -37.44921875 65.2578125 C-25.63287318 65.16090313 -13.81648832 65.07757823 -2 65 C-1.67 55.1 -1.34 45.2 -1 35 C-44.89 35 -88.78 35 -134 35 C-134 78.56 -134 122.12 -134 167 C-134.33 167 -134.66 167 -135 167 C-135 123.11 -135 79.22 -135 34 C-90.45 34 -45.9 34 0 34 C0 22.78 0 11.56 0 0 Z " fill="#020002" transform="translate(628,833)"/>
<path d="M0 0 C22.77 0 45.54 0 69 0 C69 44.55 69 89.1 69 135 C79.89 135 90.78 135 102 135 C102 135.33 102 135.66 102 136 C79.23679023 136.99068149 56.77930993 136.83001534 34 136 C34 147.22 34 158.44 34 170 C-10.55 170 -55.1 170 -101 170 C-101 213.89 -101 257.78 -101 303 C-101.99 303 -102.98 303 -104 303 C-104.02335332 285.85842249 -104.04099115 268.71684994 -104.05181217 251.57526016 C-104.05696995 243.61624876 -104.0640028 235.65724724 -104.07543945 227.69824219 C-104.08540209 220.76172941 -104.0918572 213.82522379 -104.09408849 206.88870406 C-104.09539291 203.21538771 -104.0984618 199.54209184 -104.10573006 195.86878204 C-104.11377528 191.76960845 -104.11399011 187.67047052 -104.11352539 183.57128906 C-104.11712067 182.35137268 -104.12071594 181.1314563 -104.12442017 179.87457275 C-104.1230455 178.75840576 -104.12167084 177.64223877 -104.12025452 176.49224854 C-104.12117631 175.52252232 -104.1220981 174.5527961 -104.12304783 173.55368423 C-104 171 -104 171 -103 167 C-58.12 167 -13.24 167 33 167 C32.67 161.72 32.34 156.44 32 151 C31.942139 148.00048568 31.91071471 144.99995276 31.9375 142 C31.94201172 141.3090625 31.94652344 140.618125 31.95117188 139.90625 C31.96252922 138.27079178 31.98042763 136.63538054 32 135 C41.84321537 130.07839231 53.99495065 134 65 134 C65 90.77 65 47.54 65 3 C44.21 3 23.42 3 2 3 C1.01 2.505 1.01 2.505 0 2 C0 1.34 0 0.68 0 0 Z " fill="#754E25" transform="translate(594,697)"/>
<path d="M0 0 C0.93221341 0.00037972 1.86442682 0.00075944 2.82488912 0.00115067 C3.89628261 -0.00084038 4.9676761 -0.00283143 6.07153606 -0.00488281 C7.26314435 -0.00196997 8.45475263 0.00094287 9.68247026 0.00394398 C11.56422776 0.00266234 11.56422776 0.00266234 13.48400056 0.00135481 C16.98203577 -0.0008925 20.48004065 0.00313434 23.97807199 0.00813287 C27.74427911 0.01243382 31.5104844 0.01099121 35.27669328 0.0102306 C41.80719531 0.00970514 48.33768737 0.01285425 54.86818689 0.01846844 C64.31030206 0.02658044 73.75241239 0.02919835 83.19453066 0.03045643 C98.51212276 0.03264742 113.82970954 0.03930879 129.14729875 0.04875904 C144.03076202 0.05793194 158.91422385 0.06501337 173.79768938 0.06926686 C174.7144343 0.06952958 175.63117922 0.0697923 176.57570428 0.07006299 C181.17454352 0.07136798 185.77338276 0.0726317 190.37222201 0.07387489 C228.55058808 0.08424898 266.72894754 0.10214294 304.90730852 0.1241985 C304.90730852 11.6741985 304.90730852 23.2241985 304.90730852 35.1241985 C316.12730852 35.1241985 327.34730852 35.1241985 338.90730852 35.1241985 C338.90730852 158.2141985 338.90730852 281.3041985 338.90730852 408.1241985 C338.57730852 408.1241985 338.24730852 408.1241985 337.90730852 408.1241985 C337.90730852 285.3641985 337.90730852 162.6041985 337.90730852 36.1241985 C326.68730852 36.1241985 315.46730852 36.1241985 303.90730852 36.1241985 C303.90730852 24.9041985 303.90730852 13.6841985 303.90730852 2.1241985 C204.24730852 2.1241985 104.58730852 2.1241985 1.90730852 2.1241985 C1.90730852 2.7841985 1.90730852 3.4441985 1.90730852 4.1241985 C1.24730852 4.1241985 0.58730852 4.1241985 -0.09269148 4.1241985 C-0.09269148 14.3541985 -0.09269148 24.5841985 -0.09269148 35.1241985 C-11.64269148 35.1241985 -23.19269148 35.1241985 -35.09269148 35.1241985 C-35.09269148 34.7941985 -35.09269148 34.4641985 -35.09269148 34.1241985 C-25.52269148 33.7941985 -15.95269148 33.4641985 -6.09269148 33.1241985 C-5.76269148 32.4641985 -5.43269148 31.8041985 -5.09269148 31.1241985 C-4.43269148 31.1241985 -3.77269148 31.1241985 -3.09269148 31.1241985 C-3.10054671 29.76887013 -3.10054671 29.76887013 -3.10856062 28.38616139 C-3.12556834 25.0446836 -3.13812482 21.70325158 -3.14762312 18.36174732 C-3.15266249 16.91349777 -3.15949401 15.46525333 -3.16813093 14.01702076 C-3.18021395 11.93945262 -3.18592359 9.86195152 -3.19034773 7.78435475 C-3.19558455 6.53275563 -3.20082136 5.2811565 -3.20621687 3.99163014 C-3.05536215 0.18133174 -3.05536215 0.18133174 0 0 Z " fill="#34031E" transform="translate(358.09269148111343,423.8758015036583)"/>
<path d="M0 0 C10.89 0 21.78 0 33 0 C33 10.89 33 21.78 33 33 C22.11 33 11.22 33 0 33 C0 22.11 0 11.22 0 0 Z " fill="#945C08" transform="translate(323,663)"/>
<path d="M0 0 C10.89 0 21.78 0 33 0 C33 10.89 33 21.78 33 33 C22.11 33 11.22 33 0 33 C0 22.11 0 11.22 0 0 Z " fill="#FBFBFB" transform="translate(629,629)"/>
<path d="M0 0 C0.33 0 0.66 0 1 0 C1.02505615 0.90355225 1.0501123 1.80710449 1.07592773 2.73803711 C1.17087317 6.0796428 1.27011621 9.42106252 1.37231445 12.76245117 C1.4157163 14.2106424 1.45738744 15.65888654 1.49731445 17.10717773 C1.55489062 19.18489559 1.61862028 21.26234573 1.68359375 23.33984375 C1.72025146 24.59144287 1.75690918 25.84304199 1.79467773 27.13256836 C1.67803906 29.89630504 1.67803906 29.89630504 3 31 C5.37338639 31.15971977 7.72118272 31.2592433 10.09765625 31.31640625 C10.80651474 31.33718735 11.51537323 31.35796844 12.24571228 31.37937927 C14.51787305 31.44494598 16.79015264 31.5037923 19.0625 31.5625 C20.59962183 31.60567849 22.1367315 31.64929255 23.67382812 31.69335938 C27.4490959 31.80063449 31.2244836 31.90188137 35 32 C37.14089042 35.49006453 37.2466526 38.25147441 37.23885822 42.3062973 C37.24120702 43.61110125 37.24355582 44.9159052 37.24597579 46.26024866 C37.23841313 47.71170809 37.23065846 49.16316653 37.22273254 50.61462402 C37.22162257 52.15377563 37.22138634 53.69292808 37.22195071 55.23207998 C37.22091245 59.46815766 37.20726614 63.70411618 37.19156539 67.94016147 C37.17679555 72.50598097 37.17354814 77.07181064 37.16879272 81.63764954 C37.15753749 90.58473726 37.13523246 99.53176496 37.10880206 108.47881949 C37.08744878 115.74842228 37.06964791 123.01802536 37.05438805 130.28764343 C37.05220787 131.32115632 37.0500277 132.35466922 37.04778146 133.41950068 C37.04335599 135.51887261 37.03893312 137.61824455 37.03451284 139.7176165 C36.99250249 159.41680713 36.9373868 179.11594529 36.87832262 198.81509107 C36.82465477 216.85049522 36.78741221 234.88588955 36.757924 252.92134804 C36.72751993 271.42661265 36.68608752 289.93182222 36.63263911 308.43703508 C36.60281185 318.83177693 36.5774019 329.22648509 36.56351662 339.6212616 C36.55157483 348.4693559 36.52924962 357.31734853 36.49336074 366.16537941 C36.47532745 370.68227474 36.46216276 375.19904811 36.46190834 379.71598244 C36.46154936 383.84753115 36.44749935 387.97879409 36.42233904 392.11026412 C36.41565417 393.60817277 36.41406211 395.1061142 36.41796193 396.6040327 C36.42250445 398.63393848 36.40697748 400.66385995 36.39034748 402.6937027 C36.38736473 403.82310099 36.38438199 404.95249928 36.38130885 406.11612177 C35.95768904 409.32000214 35.24885569 410.71329845 33 413 C30.23857697 413.52799676 27.83634455 413.18598981 25 413 C25 412.34 25 411.68 25 411 C18.07 411.33 11.14 411.66 4 412 C3.12819203 417.92380345 3.12819203 417.92380345 3.0078125 423.69921875 C3.02457031 424.51583984 3.04132812 425.33246094 3.05859375 426.17382812 C3.10317984 427.86154285 3.1553696 429.54907244 3.21484375 431.23632812 C3.23611328 432.45545898 3.23611328 432.45545898 3.2578125 433.69921875 C3.2798877 434.42971436 3.30196289 435.16020996 3.32470703 435.9128418 C2.90880248 438.58620122 1.73811798 439.97219569 0 442 C-0.02465288 437.31860746 -0.04283739 432.63725241 -0.05493164 427.95581055 C-0.05997157 426.36205386 -0.0668035 424.76830181 -0.07543945 423.17456055 C-0.08751999 420.88849747 -0.09323155 418.60249533 -0.09765625 416.31640625 C-0.10281754 415.59973282 -0.10797882 414.88305939 -0.11329651 414.14466858 C-0.11349263 412.42936328 -0.06192007 410.71418734 0 409 C7.79244649 401.20755351 21.98519351 407.3442127 33 407 C33.33 283.91 33.66 160.82 34 34 C22.78 34 11.56 34 0 34 C0 22.78 0 11.56 0 0 Z " fill="#82275A" transform="translate(663,425)"/>
<path d="M0 0 C0.33 0 0.66 0 1 0 C1 10.89 1 21.78 1 33 C11.89 33 22.78 33 34 33 C34 22.44 34 11.88 34 1 C34.33 1 34.66 1 35 1 C35 11.89 35 22.78 35 34 C23.78 34 12.56 34 1 34 C1 45.22 1 56.44 1 68 C-32.66 68 -66.32 68 -101 68 C-101 100.67 -101 133.34 -101 167 C-101.99 167 -102.98 167 -104 167 C-104.04626319 154.12655979 -104.08183851 141.25313924 -104.10362434 128.37963295 C-104.11407843 122.40247291 -104.12826721 116.42536958 -104.15087891 110.44824219 C-104.17254942 104.68408015 -104.18455637 98.91997278 -104.18975449 93.15577316 C-104.19346068 90.95245884 -104.20069754 88.74914763 -104.21146011 86.54585648 C-104.22589807 83.46881808 -104.22798118 80.39200801 -104.22705078 77.31494141 C-104.23424133 76.39640884 -104.24143188 75.47787628 -104.24884033 74.5315094 C-104.246091 73.69575882 -104.24334167 72.86000824 -104.24050903 71.99893188 C-104.24235262 71.27071543 -104.24419621 70.54249897 -104.24609566 69.79221535 C-104 68 -104 68 -102 66 C-100.19216728 65.73828697 -100.19216728 65.73828697 -97.96310425 65.7215271 C-97.11893951 65.71036362 -96.27477478 65.69920013 -95.4050293 65.68769836 C-94.477146 65.68553818 -93.5492627 65.68337799 -92.59326172 65.68115234 C-91.12978806 65.66608391 -91.12978806 65.66608391 -89.63674927 65.65071106 C-86.4010682 65.61973735 -83.16547038 65.60280457 -79.9296875 65.5859375 C-77.69051388 65.56723726 -75.45134739 65.54766473 -73.21218872 65.5272522 C-67.31032505 65.47580411 -61.40843849 65.43624635 -55.50646973 65.39910889 C-49.4873279 65.35914853 -43.46828228 65.30801995 -37.44921875 65.2578125 C-25.63287318 65.16090313 -13.81648832 65.07757823 -2 65 C-1.67 55.1 -1.34 45.2 -1 35 C-44.89 35 -88.78 35 -134 35 C-134 78.56 -134 122.12 -134 167 C-134.33 167 -134.66 167 -135 167 C-135 123.11 -135 79.22 -135 34 C-90.45 34 -45.9 34 0 34 C0 22.78 0 11.56 0 0 Z " fill="#260811" transform="translate(628,833)"/>
<path d="M0 0 C10.89 0 21.78 0 33 0 C33 0.33 33 0.66 33 1 C22.44 1 11.88 1 1 1 C1.01474869 3.8430777 1.02949738 6.6861554 1.04469299 9.61538696 C1.17946636 35.68728835 1.30913851 61.75921125 1.4332476 87.83116565 C1.44951858 91.2482838 1.46583432 94.66540173 1.48217773 98.08251953 C1.48705712 99.10294899 1.48705712 99.10294899 1.49203508 100.14399318 C1.54481189 111.15891635 1.60121492 122.17381812 1.6589582 133.18871625 C1.71812791 144.49111205 1.77332357 155.79352255 1.82505554 167.09595525 C1.85423841 173.44430367 1.88523475 179.79263166 1.92053413 186.14094925 C1.95369323 192.11455963 1.98205072 198.08817345 2.00670624 204.0618248 C2.01661078 206.25561649 2.02827812 208.44940103 2.04183006 210.64317322 C2.06005789 213.63635347 2.07196623 216.62949475 2.08229065 219.62271118 C2.08909444 220.49237034 2.09589823 221.36202951 2.10290819 222.25804198 C2.11099161 226.62467482 1.88154261 230.69982122 1 235 C1.69673828 234.83685303 2.39347656 234.67370605 3.11132812 234.50561523 C8.53587872 233.55613549 14.01304249 233.93240881 19.5 234.0625 C20.72332031 234.06443359 21.94664062 234.06636719 23.20703125 234.06835938 C32.01235929 234.29450714 32.01235929 234.29450714 34.95703125 236.39794922 C36.34375 238.05859375 36.34375 238.05859375 38 241 C37.67 241.66 37.34 242.32 37 243 C36.90218158 244.4538067 36.86616873 245.91199571 36.8613348 247.3690815 C36.85586036 248.29268003 36.85038591 249.21627856 36.84474558 250.16786492 C36.84376747 251.18924959 36.84278936 252.21063425 36.84178162 253.26296997 C36.83684364 254.34273664 36.83190566 255.42250332 36.82681805 256.53499019 C36.81137877 260.17713376 36.80306507 263.81925963 36.79467773 267.46142578 C36.78510426 270.06267454 36.7750945 272.66392172 36.76467896 275.26516724 C36.74289773 280.87783188 36.72475928 286.49049889 36.70907402 292.10318375 C36.68639036 300.21824762 36.65824547 308.33328527 36.62875474 316.44832693 C36.58106036 329.61348894 36.53780119 342.77866166 36.49731445 355.94384766 C36.45796891 368.73487176 36.41654495 381.52588634 36.37231445 394.31689453 C36.36959018 395.10493592 36.36686591 395.8929773 36.36405908 396.70489873 C36.35037976 400.65815239 36.33665946 404.61140591 36.32291877 408.56465936 C36.208925 441.37641994 36.10212207 474.18820029 36 507 C35.34 507 34.68 507 34 507 C34 418.23 34 329.46 34 238 C23.11 238 12.22 238 1 238 C-0.9184645 236.0815355 -0.1229388 233.2209537 -0.12908131 230.66789049 C-0.12616847 229.74864858 -0.12325563 228.82940668 -0.12025452 227.88230896 C-0.12110894 226.91365263 -0.12196337 225.94499629 -0.12284368 224.94698673 C-0.12450143 221.67484456 -0.11897231 218.40275275 -0.11352539 215.13061523 C-0.11324356 212.79552207 -0.11340118 210.46042881 -0.1139679 208.12533569 C-0.11425602 201.76401984 -0.10835694 195.40272266 -0.10139394 189.04141116 C-0.09579343 183.07360839 -0.09477212 177.10580638 -0.09374207 171.13800133 C-0.09155124 159.31440946 -0.08489032 147.49082446 -0.07543945 135.66723633 C-0.06626613 124.17895543 -0.05918491 112.6906764 -0.05493164 101.20239258 C-0.05466892 100.49473735 -0.05440619 99.78708212 -0.05413551 99.05798279 C-0.05283051 95.50802855 -0.05156679 91.9580743 -0.05032361 88.40812004 C-0.03995003 58.93874213 -0.02205645 29.46937145 0 0 Z " fill="#1F0112" transform="translate(289,493)"/>
<path d="M0 0 C0.33 0 0.66 0 1 0 C1.33 78.21 1.66 156.42 2 237 C18.335 237.495 18.335 237.495 35 238 C35 326.77 35 415.54 35 507 C34.34 507 33.68 507 33 507 C32.67 419.55 32.34 332.1 32 242 C24.08 241.67 16.16 241.34 8 241 C1 240 1 240 0 239 C-0.09803662 235.92810576 -0.12990812 232.87868011 -0.12025452 229.80638123 C-0.12110894 228.82955779 -0.12196337 227.85273435 -0.12284368 226.8463102 C-0.12450145 223.54652911 -0.11897228 220.24679795 -0.11352539 216.94702148 C-0.11324356 214.59222413 -0.11340118 212.23742669 -0.1139679 209.88262939 C-0.11425602 203.46759631 -0.10835691 197.05258174 -0.10139394 190.63755298 C-0.09531949 184.61936854 -0.09477212 178.60118191 -0.09374207 172.58299495 C-0.09155123 160.6595745 -0.0848903 148.73616088 -0.07543945 136.81274414 C-0.06626615 125.22745803 -0.05918492 113.64217377 -0.05493164 102.05688477 C-0.05466892 101.34325555 -0.05440619 100.62962633 -0.05413551 99.89437198 C-0.05283051 96.3144496 -0.05156679 92.7345272 -0.05032361 89.15460479 C-0.03995002 59.43639867 -0.02225673 29.71819966 0 0 Z " fill="#682047" transform="translate(288,493)"/>
<path d="M0 0 C0.85395355 -0.00137466 1.7079071 -0.00274933 2.58773804 -0.00416565 C3.5213768 -0.00057037 4.45501556 0.0030249 5.41694641 0.00672913 C6.89526947 0.00651009 6.89526947 0.00651009 8.40345764 0.00628662 C11.66619557 0.00698417 14.92887664 0.01476924 18.19160461 0.02259827 C20.45176156 0.02446301 22.71191892 0.02588665 24.97207642 0.02688599 C30.92494317 0.03070676 36.87778558 0.04053332 42.8306427 0.05158997 C48.90343395 0.06181352 54.97622912 0.06638563 61.04902649 0.07142639 C72.96765698 0.08215596 84.8862694 0.09922713 96.80488586 0.12025452 C96.80488586 1.11025452 96.80488586 2.10025452 96.80488586 3.12025452 C63.47488586 3.12025452 30.14488586 3.12025452 -4.19511414 3.12025452 C-4.19511414 14.01025452 -4.19511414 24.90025452 -4.19511414 36.12025452 C29.13488586 36.12025452 62.46488586 36.12025452 96.80488586 36.12025452 C96.80488586 37.44025452 96.80488586 38.76025452 96.80488586 40.12025452 C63.47488586 40.12025452 30.14488586 40.12025452 -4.19511414 40.12025452 C-4.69011414 38.63525452 -4.69011414 38.63525452 -5.19511414 37.12025452 C-5.85511414 36.79025452 -6.51511414 36.46025452 -7.19511414 36.12025452 C-7.19511414 24.57025452 -7.19511414 13.02025452 -7.19511414 1.12025452 C-4.44022989 0.20195977 -2.83579198 -0.00352272 0 0 Z " fill="#6B491C" transform="translate(463.1951141357422,523.8797454833984)"/>
<path d="M0 0 C0.66 0 1.32 0 2 0 C2 0.66 2 1.32 2 2 C46.88 2 91.76 2 138 2 C138 2.33 138 2.66 138 3 C92.79 3 47.58 3 1 3 C1 36.66 1 70.32 1 105 C45.88 105 90.76 105 137 105 C137 105.66 137 106.32 137 107 C119.59775444 107.17726999 102.19544245 107.34294078 84.79295731 107.49477577 C76.71281989 107.56554511 68.63275096 107.64012027 60.55273438 107.72363281 C53.51080271 107.7964064 46.46884696 107.86206183 39.42676997 107.91914403 C35.6974957 107.94962236 31.96833123 107.98368216 28.23917389 108.02626419 C24.07778842 108.0736484 19.9164291 108.10514097 15.75488281 108.13525391 C13.89695602 108.16006584 13.89695602 108.16006584 12.00149536 108.18537903 C10.86850006 108.19104385 9.73550476 108.19670868 8.56817627 108.20254517 C7.58370136 108.2117631 6.59922646 108.22098103 5.58491898 108.23047829 C2.87664301 107.98900116 1.27070077 107.4732048 -1 106 C-2.71296214 102.57407573 -2.14716255 98.64209359 -2.14526367 94.87207031 C-2.14862228 93.9255661 -2.1519809 92.97906189 -2.15544128 92.00387573 C-2.16497182 88.86194561 -2.16689564 85.72006869 -2.16796875 82.578125 C-2.17118056 80.39817279 -2.17454458 78.2182208 -2.17805481 76.03826904 C-2.18405183 71.46170553 -2.18589419 66.88516092 -2.18530273 62.30859375 C-2.18520124 56.44634707 -2.19883802 50.58422185 -2.21607494 44.72200394 C-2.22720009 40.21640467 -2.22922176 35.71083468 -2.22869301 31.20522308 C-2.22987294 29.04429456 -2.23429545 26.88336528 -2.24202538 24.72245026 C-2.25183273 21.69671673 -2.24894385 18.67124565 -2.24291992 15.64550781 C-2.24853943 14.75384918 -2.25415894 13.86219055 -2.25994873 12.94351196 C-2.23610742 8.22613872 -1.82225629 4.43557527 0 0 Z " fill="#825F2D" transform="translate(423,592)"/>
<path d="M0 0 C1.43352212 0.00015908 2.86704998 0.00585132 4.30053711 0.01586914 C5.43041298 0.01799156 5.43041298 0.01799156 6.58311462 0.02015686 C8.99807646 0.02577163 11.41294687 0.03832656 13.82788086 0.05102539 C15.46134307 0.05603849 17.09480672 0.06060173 18.72827148 0.06469727 C22.74067671 0.07574585 26.75301326 0.09302033 30.76538086 0.11352539 C30.76538086 0.44352539 30.76538086 0.77352539 30.76538086 1.11352539 C19.87538086 1.11352539 8.98538086 1.11352539 -2.23461914 1.11352539 C-2.23461914 68.43352539 -2.23461914 135.75352539 -2.23461914 205.11352539 C-13.45461914 205.11352539 -24.67461914 205.11352539 -36.23461914 205.11352539 C-36.23461914 204.45352539 -36.23461914 203.79352539 -36.23461914 203.11352539 C-20.88961914 202.61852539 -20.88961914 202.61852539 -5.23461914 202.11352539 C-5.23985596 198.29854492 -5.24509277 194.48356445 -5.25048828 190.55297852 C-5.26739595 177.64924133 -5.27828633 164.74550417 -5.28643131 151.84175873 C-5.29148358 144.0526216 -5.2983317 136.26349541 -5.31005859 128.47436523 C-5.35800862 95.90829104 -5.31161886 63.34783927 -4.82480311 30.7847538 C-4.79334063 28.65342845 -4.76352696 26.52208512 -4.73402596 24.39073181 C-4.6791936 20.48115056 -4.61497882 16.57176071 -4.54882812 12.66235352 C-4.53230886 11.49795242 -4.5157896 10.33355133 -4.49876976 9.13386536 C-4.4790291 8.08369736 -4.45928844 7.03352936 -4.43894958 5.95153809 C-4.42359382 5.03548042 -4.40823805 4.11942276 -4.39241695 3.17560577 C-4.12978595 -0.25642056 -3.54808507 0.1245271 0 0 Z " fill="#210E03" transform="translate(393.234619140625,525.886474609375)"/>
<path d="M0 0 C3.125 -0.3125 3.125 -0.3125 6 0 C6.33 0.33 6.66 0.66 7 1 C8.56542281 1.09428655 10.13512581 1.11820033 11.70338154 1.11466789 C12.72702409 1.11480884 13.75066664 1.1149498 14.80532867 1.11509502 C15.94362615 1.11013582 17.08192362 1.10517662 18.25471497 1.10006714 C19.45331152 1.09880487 20.65190808 1.09754259 21.88682574 1.09624207 C25.22893393 1.09177489 28.57097791 1.08282201 31.91306841 1.07208848 C35.51165521 1.0616403 39.11024954 1.05698126 42.70884705 1.05175781 C48.94959631 1.04202925 55.19033151 1.02898178 61.43107033 1.01403427 C71.29109128 0.99070926 81.15111319 0.97767385 91.01115417 0.96633911 C94.38177592 0.96233729 97.75239758 0.95826863 101.12301922 0.95417976 C101.96545282 0.95316054 102.80788642 0.95214131 103.67584831 0.95109119 C113.27258961 0.9393402 122.86932743 0.92546369 132.46606445 0.91064453 C133.34369045 0.9092921 134.22131645 0.90793967 135.12553718 0.90654625 C149.34914368 0.8843637 163.57272655 0.85449689 177.79631428 0.82267712 C192.38707892 0.79031431 206.97783118 0.76942753 221.56862754 0.75840485 C230.57505388 0.7511705 239.58136368 0.73443323 248.58774724 0.70560409 C254.75831284 0.68663923 260.92883179 0.67851802 267.09942631 0.67900907 C270.66244766 0.6789459 274.22528588 0.67391681 277.78826523 0.65584183 C281.64701245 0.63638074 285.50553777 0.64000808 289.36433411 0.64596558 C290.49593942 0.63654493 291.62754473 0.62712429 292.79344112 0.61741817 C294.34063981 0.62545284 294.34063981 0.62545284 295.91909504 0.63364983 C296.8101363 0.63196859 297.70117756 0.63028736 298.61922008 0.62855518 C301 1 301 1 305 4 C203.36 4 101.72 4 -3 4 C-2.01 2.68 -1.02 1.36 0 0 Z " fill="#822859" transform="translate(358,420)"/>
<path d="M0 0 C1.32 0 2.64 0 4 0 C4 0.66 4 1.32 4 2 C47.89 2 91.78 2 137 2 C137 2.33 137 2.66 137 3 C92.45 3 47.9 3 2 3 C2 46.89 2 90.78 2 136 C1.01 136 0.02 136 -1 136 C-1.02335332 118.85842249 -1.04099115 101.71684994 -1.05181217 84.57526016 C-1.05696995 76.61624876 -1.0640028 68.65724724 -1.07543945 60.69824219 C-1.08540209 53.76172941 -1.0918572 46.82522379 -1.09408849 39.88870406 C-1.09539291 36.21538771 -1.0984618 32.54209184 -1.10573006 28.86878204 C-1.11377528 24.76960845 -1.11399011 20.67047052 -1.11352539 16.57128906 C-1.11712067 15.35137268 -1.12071594 14.1314563 -1.12442017 12.87457275 C-1.1230455 11.75840576 -1.12167084 10.64223877 -1.12025452 9.49224854 C-1.12117631 8.52252232 -1.1220981 7.5527961 -1.12304783 6.55368423 C-1.01043556 4.21657524 -0.66451659 2.23545807 0 0 Z " fill="#6A4A20" transform="translate(491,864)"/>
<path d="M0 0 C0.33 0 0.66 0 1 0 C1.02505615 0.90355225 1.0501123 1.80710449 1.07592773 2.73803711 C1.17087317 6.0796428 1.27011621 9.42106252 1.37231445 12.76245117 C1.4157163 14.2106424 1.45738744 15.65888654 1.49731445 17.10717773 C1.55489062 19.18489559 1.61862028 21.26234573 1.68359375 23.33984375 C1.72025146 24.59144287 1.75690918 25.84304199 1.79467773 27.13256836 C1.67803906 29.89630504 1.67803906 29.89630504 3 31 C5.37338639 31.15971977 7.72118272 31.2592433 10.09765625 31.31640625 C10.80651474 31.33718735 11.51537323 31.35796844 12.24571228 31.37937927 C14.51787305 31.44494598 16.79015264 31.5037923 19.0625 31.5625 C20.59962183 31.60567849 22.1367315 31.64929255 23.67382812 31.69335938 C27.4490959 31.80063449 31.2244836 31.90188137 35 32 C36.0625 33.8125 36.0625 33.8125 37 36 C36.67 36.99 36.34 37.98 36 39 C35.90262485 41.03697639 35.86618862 43.07703914 35.8613348 45.11633587 C35.85586036 46.40419859 35.85038591 47.6920613 35.84474558 49.01895016 C35.8436693 50.4564556 35.84268462 51.89396112 35.84178162 53.33146667 C35.83721752 54.85198371 35.83221772 56.37249948 35.82681805 57.89301378 C35.81321023 62.08201214 35.80581095 66.27100237 35.79939139 70.46001709 C35.79139904 74.97330868 35.77769727 79.48658328 35.76467896 83.99986267 C35.74289964 91.82299964 35.72476048 99.64613831 35.70907402 107.46928978 C35.68638863 118.78033844 35.65824396 130.09136829 35.62875474 141.40240101 C35.5810625 159.75255266 35.53780274 178.102712 35.49731445 196.45288086 C35.45796783 214.28133746 35.41654361 232.10978723 35.37231445 249.93823242 C35.36959018 251.03665862 35.36686591 252.13508483 35.36405908 253.26679667 C35.35037974 258.77712307 35.33665944 264.28744938 35.32291877 269.79777563 C35.20892835 315.53183618 35.10212467 361.26591151 35 407 C34.67 407 34.34 407 34 407 C34 283.91 34 160.82 34 34 C22.78 34 11.56 34 0 34 C0 22.78 0 11.56 0 0 Z " fill="#752D53" transform="translate(663,425)"/>
<path d="M0 0 C1.22355698 0.00222061 2.44711395 0.00444122 3.70774841 0.00672913 C4.71746201 0.00651009 4.71746201 0.00651009 5.74757385 0.00628662 C7.98229649 0.00698573 10.21693674 0.01477799 12.4516449 0.02259827 C13.99721226 0.02446245 15.54278022 0.02588635 17.08834839 0.02688599 C21.16380941 0.03071112 25.23923502 0.04054135 29.31468201 0.05158997 C33.47035747 0.0618042 37.62603864 0.06638363 41.78172302 0.07142639 C49.94124452 0.08216363 58.10073718 0.09923998 66.26023865 0.12025452 C66.26023865 0.78025452 66.26023865 1.44025452 66.26023865 2.12025452 C66.92023865 2.12025452 67.58023865 2.12025452 68.26023865 2.12025452 C68.30960375 7.06815629 68.34594134 12.01591535 68.37010193 16.96400452 C68.38017181 18.64794918 68.39382853 20.33187631 68.41111755 22.01576233 C68.4353229 24.43344952 68.44671161 26.85090595 68.45555115 29.26869202 C68.46587372 30.02395172 68.47619629 30.77921143 68.48683167 31.55735779 C68.48723183 33.41319432 68.38246581 35.26844732 68.26023865 37.12025452 C66.26023865 39.12025452 66.26023865 39.12025452 63.59004211 39.36076355 C62.45753021 39.35632233 61.32501831 39.3518811 60.15818787 39.3473053 C58.8770108 39.34715424 57.59583374 39.34700317 56.27583313 39.34684753 C54.8721959 39.33663347 53.46856025 39.32620146 52.06492615 39.31556702 C50.6328908 39.31183743 49.2008529 39.3089902 47.76881409 39.30699158 C43.99745148 39.29935079 40.22624261 39.2796986 36.4549408 39.25758362 C32.60750916 39.23713471 28.7600527 39.22799191 24.9125824 39.21791077 C17.36173101 39.19645302 9.81100636 39.16231184 2.26023865 39.12025452 C1.93023865 38.46025452 1.60023865 37.80025452 1.26023865 37.12025452 C22.71023865 36.79025452 44.16023865 36.46025452 66.26023865 36.12025452 C66.26023865 25.56025452 66.26023865 15.00025452 66.26023865 4.12025452 C33.09523865 3.62525452 33.09523865 3.62525452 -0.73976135 3.12025452 C-0.40976135 14.34025452 -0.07976135 25.56025452 0.26023865 37.12025452 C-1.05976135 36.79025452 -2.37976135 36.46025452 -3.73976135 36.12025452 C-3.76441233 31.15403102 -3.78259784 26.18784285 -3.79469299 21.22157288 C-3.79973325 19.53081136 -3.8065654 17.84005423 -3.81520081 16.14930725 C-3.82727992 13.72424745 -3.83299258 11.29924508 -3.8374176 8.87416077 C-3.84257889 8.11373978 -3.84774017 7.35331879 -3.85305786 6.56985474 C-3.85325373 4.75292881 -3.80173412 2.93612324 -3.73976135 1.12025452 C-2.73976135 0.12025452 -2.73976135 0.12025452 0 0 Z " fill="#7A5525" transform="translate(493.73976135253906,795.8797454833984)"/>
<path d="M0 0 C22.44 0 44.88 0 68 0 C68 44.55 68 89.1 68 135 C67.34 135 66.68 135 66 135 C65.67 91.44 65.34 47.88 65 3 C44.21 3 23.42 3 2 3 C1.34 2.67 0.68 2.34 0 2 C0 1.34 0 0.68 0 0 Z " fill="#885B23" transform="translate(594,697)"/>
<path d="M0 0 C1.80868813 0.00333092 1.80868813 0.00333092 3.65391541 0.00672913 C4.64899864 0.00651009 4.64899864 0.00651009 5.66418457 0.00628662 C7.86644207 0.00698571 10.06861596 0.01477787 12.27085876 0.02259827 C13.79400588 0.02446246 15.31715359 0.02588636 16.84030151 0.02688599 C20.85657903 0.03071105 24.87282059 0.04054124 28.88908386 0.05158997 C33.70399991 0.06359902 38.51892795 0.06820638 43.33385468 0.07404327 C50.65532899 0.08375301 57.97672436 0.10290961 65.29820251 0.12025452 C65.29820251 11.67025452 65.29820251 23.22025452 65.29820251 35.12025452 C42.52820251 35.12025452 19.75820251 35.12025452 -3.70179749 35.12025452 C-3.70179749 0.1647636 -3.70179749 0.1647636 0 0 Z M-1.70179749 2.12025452 C-1.77601203 6.05286396 -1.83042885 9.98520174 -1.86659241 13.91835022 C-1.88908082 15.91353152 -1.92719946 17.90851664 -1.96546936 19.90345764 C-1.97513733 21.15707092 -1.9848053 22.4106842 -1.99476624 23.70228577 C-2.01047668 24.85962219 -2.02618713 26.01695862 -2.04237366 27.20936584 C-1.91269963 30.06677163 -1.91269963 30.06677163 -0.56048584 32.00009155 C2.12486921 33.61845606 4.20577854 33.4798433 7.33018494 33.46083069 C8.57124496 33.4606041 9.81230499 33.4603775 11.0909729 33.46014404 C12.44520935 33.4448242 13.79944212 33.42917621 15.15367126 33.41322327 C16.53943422 33.40762703 17.92520311 33.40335706 19.31097412 33.40036011 C22.95583015 33.38891334 26.60032674 33.3594481 30.24504089 33.32624817 C33.96518503 33.29554338 37.68538906 33.28168952 41.40562439 33.26673889 C48.70346774 33.23616987 56.00032444 33.17745124 63.29820251 33.12025452 C63.29820251 23.55025452 63.29820251 13.98025452 63.29820251 4.12025452 C60.56456104 2.75343378 58.34782772 2.95759989 55.28794861 2.91493225 C54.0267923 2.89498703 52.76563599 2.87504181 51.46626282 2.85449219 C50.08472315 2.83750787 48.70318217 2.82062906 47.32164001 2.80384827 C45.91201669 2.78327891 44.50239954 2.76228245 43.0927887 2.74087524 C39.38073216 2.68565257 35.66861995 2.63624421 31.95646667 2.58802795 C28.16928648 2.53781433 24.38218725 2.48212755 20.59507751 2.42689514 C13.16285439 2.31931119 5.730564 2.21786679 -1.70179749 2.12025452 Z " fill="#2D1606" transform="translate(563.7017974853516,729.8797454833984)"/>
<path d="M0 0 C0.93221341 0.00037972 1.86442682 0.00075944 2.82488912 0.00115067 C3.89628261 -0.00084038 4.9676761 -0.00283143 6.07153606 -0.00488281 C7.26314435 -0.00196997 8.45475263 0.00094287 9.68247026 0.00394398 C11.56422776 0.00266234 11.56422776 0.00266234 13.48400056 0.00135481 C16.98203577 -0.0008925 20.48004065 0.00313434 23.97807199 0.00813287 C27.74427911 0.01243382 31.5104844 0.01099121 35.27669328 0.0102306 C41.80719531 0.00970514 48.33768737 0.01285425 54.86818689 0.01846844 C64.31030206 0.02658044 73.75241239 0.02919835 83.19453066 0.03045643 C98.51212276 0.03264742 113.82970954 0.03930879 129.14729875 0.04875904 C144.03076202 0.05793194 158.91422385 0.06501337 173.79768938 0.06926686 C174.7144343 0.06952958 175.63117922 0.0697923 176.57570428 0.07006299 C181.17454352 0.07136798 185.77338276 0.0726317 190.37222201 0.07387489 C228.5505879 0.08424898 266.72894786 0.10186857 304.90730852 0.1241985 C304.90730852 0.4541985 304.90730852 0.7841985 304.90730852 1.1241985 C204.25730852 1.4541985 103.60730852 1.7841985 -0.09269148 2.1241985 C-0.42269148 12.6841985 -0.75269148 23.2441985 -1.09269148 34.1241985 C-2.09269148 35.1241985 -2.09269148 35.1241985 -5.23551375 35.23772389 C-6.62671846 35.23756482 -8.01792909 35.23187356 -9.40909773 35.22185475 C-10.14015227 35.2204398 -10.8712068 35.21902485 -11.6244145 35.21756703 C-13.9680478 35.21195258 -16.31158687 35.19939771 -18.65519148 35.1866985 C-20.24047656 35.18168535 -21.82576314 35.17712213 -23.41105086 35.17302662 C-27.30496758 35.16197846 -31.19881354 35.14470421 -35.09269148 35.1241985 C-35.09269148 34.7941985 -35.09269148 34.4641985 -35.09269148 34.1241985 C-25.52269148 33.7941985 -15.95269148 33.4641985 -6.09269148 33.1241985 C-5.76269148 32.4641985 -5.43269148 31.8041985 -5.09269148 31.1241985 C-4.43269148 31.1241985 -3.77269148 31.1241985 -3.09269148 31.1241985 C-3.10054671 29.76887013 -3.10054671 29.76887013 -3.10856062 28.38616139 C-3.12556834 25.0446836 -3.13812482 21.70325158 -3.14762312 18.36174732 C-3.15266249 16.91349777 -3.15949401 15.46525333 -3.16813093 14.01702076 C-3.18021395 11.93945262 -3.18592359 9.86195152 -3.19034773 7.78435475 C-3.19558455 6.53275563 -3.20082136 5.2811565 -3.20621687 3.99163014 C-3.05536215 0.18133174 -3.05536215 0.18133174 0 0 Z " fill="#501637" transform="translate(358.09269148111343,423.8758015036583)"/>
<path d="M0 0 C11.22 0 22.44 0 34 0 C30 4 30 4 27.06738281 4.36230469 C25.95717773 4.29946289 24.84697266 4.23662109 23.703125 4.171875 C22.49785156 4.11386719 21.29257812 4.05585937 20.05078125 3.99609375 C18.79652344 3.91488281 17.54226563 3.83367188 16.25 3.75 C14.98027344 3.68425781 13.71054687 3.61851562 12.40234375 3.55078125 C9.26672731 3.38574881 6.13345222 3.20146337 3 3 C3.01571045 3.8878418 3.0314209 4.77568359 3.04760742 5.69042969 C3.09881686 8.99289821 3.13638856 12.2949432 3.16479492 15.59765625 C3.17985681 17.02545846 3.20031062 18.4532146 3.22631836 19.88085938 C3.26281842 21.93631373 3.27975166 23.99115505 3.29296875 26.046875 C3.3086792 27.28276367 3.32438965 28.51865234 3.34057617 29.79199219 C2.97859576 33.20161411 2.32290222 34.54581495 0 37 C-0.57412754 36.83826325 -1.14825508 36.67652651 -1.73978043 36.50988865 C-3.96099354 36.00879957 -5.89135251 35.86238411 -8.16351318 35.84178162 C-8.9834866 35.83200759 -9.80346001 35.82223356 -10.6482811 35.81216335 C-11.98978918 35.80350797 -11.98978918 35.80350797 -13.35839844 35.79467773 C-14.80134466 35.77962865 -14.80134466 35.77962865 -16.27344131 35.76427555 C-19.38539476 35.73290881 -22.49736096 35.70812683 -25.609375 35.68359375 C-27.53141697 35.66518863 -29.45345486 35.64635186 -31.37548828 35.6270752 C-38.50027718 35.55864934 -45.62514437 35.49858259 -52.75 35.4375 C-68.6725 35.293125 -84.595 35.14875 -101 35 C-101 67.34 -101 99.68 -101 133 C-101.33 133 -101.66 133 -102 133 C-102 100.33 -102 67.66 -102 34 C-68.34 34 -34.68 34 0 34 C0 22.78 0 11.56 0 0 Z " fill="#712453" transform="translate(629,867)"/>
<path d="M0 0 C0.9170246 0.00037972 1.8340492 0.00075944 2.77886242 0.00115067 C3.83283893 -0.00084038 4.88681544 -0.00283143 5.97273064 -0.00488281 C7.14488418 -0.00196997 8.31703772 0.00094287 9.52471107 0.00394398 C10.75879831 0.00308955 11.99288555 0.00223513 13.26436937 0.00135481 C16.70540629 -0.00001343 20.14638703 0.00313427 23.58741719 0.00813287 C27.29227404 0.01243389 30.99712903 0.0109912 34.70198768 0.0102306 C41.12608515 0.00970514 47.5501725 0.01285421 53.97426742 0.01846844 C63.26253715 0.0265805 72.55080196 0.02919836 81.83907484 0.03045643 C96.90709548 0.03264741 111.97511072 0.03930875 127.04312843 0.04875904 C141.68407868 0.05793196 156.32502746 0.06501338 170.96597999 0.06926686 C171.86778993 0.06952958 172.76959988 0.0697923 173.69873739 0.07006299 C178.22265627 0.07136798 182.74657515 0.0726317 187.27049404 0.07387489 C224.8267894 0.08424895 262.38307861 0.10186852 299.93936867 0.1241985 C299.93936867 0.4541985 299.93936867 0.7841985 299.93936867 1.1241985 C200.93936867 1.1241985 101.93936867 1.1241985 -0.06063133 1.1241985 C-0.06063133 1.7841985 -0.06063133 2.4441985 -0.06063133 3.1241985 C-0.72063133 3.1241985 -1.38063133 3.1241985 -2.06063133 3.1241985 C-2.06063133 13.3541985 -2.06063133 23.5841985 -2.06063133 34.1241985 C-2.72063133 33.7941985 -3.38063133 33.4641985 -4.06063133 33.1241985 C-3.9426668 28.58502931 -3.8184402 24.04609208 -3.68831688 19.50725514 C-3.64491149 17.9620556 -3.60324063 16.41680636 -3.56331688 14.87151295 C-3.50574935 12.65480753 -3.4420171 10.4383537 -3.37703758 8.22185475 C-3.36032509 7.52705509 -3.3436126 6.83225544 -3.32639366 6.11640126 C-3.14185082 0.18936582 -3.14185082 0.18936582 0 0 Z " fill="#260219" transform="translate(360.06063133478165,424.8758015036583)"/>
<path d="M0 0 C0.33 0 0.66 0 1 0 C1 9.24 1 18.48 1 28 C0.34 28 -0.32 28 -1 28 C-1.495 29.485 -1.495 29.485 -2 31 C-11.57 31 -21.14 31 -31 31 C-30.98839844 33.44277344 -30.97679687 35.88554687 -30.96484375 38.40234375 C-30.95705316 40.75870636 -30.95097641 43.11506756 -30.94506836 45.47143555 C-30.94002826 47.11369464 -30.93319622 48.75594923 -30.92456055 50.39819336 C-30.91248074 52.75375479 -30.90676861 55.10925709 -30.90234375 57.46484375 C-30.89718246 58.20339096 -30.89202118 58.94193817 -30.88670349 59.7028656 C-30.8865075 61.46898088 -30.93805281 63.23497146 -31 65 C-32 66 -32 66 -35.14282227 66.11352539 C-36.53402697 66.11336633 -37.92523761 66.10767506 -39.31640625 66.09765625 C-40.04746078 66.0962413 -40.77851532 66.09482635 -41.53172302 66.09336853 C-43.87535632 66.08775408 -46.21889539 66.07519922 -48.5625 66.0625 C-50.14778508 66.05748686 -51.73307166 66.05292363 -53.31835938 66.04882812 C-57.2122761 66.03777997 -61.10612205 66.02050572 -65 66 C-65 65.34 -65 64.68 -65 64 C-63.02 64 -61.04 64 -59 64 C-58.67 63.01 -58.34 62.02 -58 61 C-50.08 61.33 -42.16 61.66 -34 62 C-34.02320313 59.78539062 -34.04640625 57.57078125 -34.0703125 55.2890625 C-34.08590314 53.14779229 -34.0980512 51.00652836 -34.10986328 48.86523438 C-34.11993043 47.3752968 -34.13358518 45.88537903 -34.15087891 44.39550781 C-34.17509653 42.25580972 -34.18647564 40.11637247 -34.1953125 37.9765625 C-34.20578613 36.68830566 -34.21625977 35.40004883 -34.22705078 34.07275391 C-34 31 -34 31 -32 29 C-29.14257812 28.71289062 -29.14257812 28.71289062 -25.53125 28.65625 C-24.23832031 28.62660156 -22.94539063 28.59695313 -21.61328125 28.56640625 C-19.55260152 28.53146279 -17.49188552 28.49987552 -15.43115234 28.46826172 C-13.44353733 28.43455724 -11.45612831 28.38932298 -9.46875 28.34375 C-8.27701172 28.32505859 -7.08527344 28.30636719 -5.85742188 28.28710938 C-2.86940327 28.29131733 -2.86940327 28.29131733 -1 26 C-0.73859687 23.6227755 -0.73859687 23.6227755 -0.83984375 20.87890625 C-0.85080078 19.86119141 -0.86175781 18.84347656 -0.87304688 17.79492188 C-0.90495117 16.19487305 -0.90495117 16.19487305 -0.9375 14.5625 C-0.97193026 12.45970403 -1.00207139 10.35683222 -1.02734375 8.25390625 C-1.05429321 6.85120483 -1.05429321 6.85120483 -1.08178711 5.42016602 C-1 3 -1 3 0 0 Z " fill="#84235D" transform="translate(354,427)"/>
<path d="M0 0 C10.89 0 21.78 0 33 0 C33 10.89 33 21.78 33 33 C22.11 33 11.22 33 0 33 C0 22.11 0 11.22 0 0 Z M3 3 C2.979375 7.434375 2.95875 11.86875 2.9375 16.4375 C2.928396 17.83798584 2.91929199 19.23847168 2.90991211 20.68139648 C2.90741455 21.77524658 2.90491699 22.86909668 2.90234375 23.99609375 C2.89710693 25.12200928 2.89187012 26.2479248 2.88647461 27.40795898 C2.70454552 29.92970871 2.70454552 29.92970871 4 31 C8.13962283 31.25301239 12.29105996 31.18522549 16.4375 31.1875 C18.19416992 31.20586914 18.19416992 31.20586914 19.98632812 31.22460938 C21.10330078 31.22654297 22.22027344 31.22847656 23.37109375 31.23046875 C24.40161865 31.23457764 25.43214355 31.23868652 26.49389648 31.24291992 C29.17247404 31.25125068 29.17247404 31.25125068 31 29 C31.29459094 26.50977066 31.29459094 26.50977066 31.23046875 23.625 C31.22853516 22.55765625 31.22660156 21.4903125 31.22460938 20.390625 C31.21236328 19.27171875 31.20011719 18.1528125 31.1875 17 C31.18685547 15.88109375 31.18621094 14.7621875 31.18554688 13.609375 C31.41542792 8.13333345 31.41542792 8.13333345 30 3 C21.09 3 12.18 3 3 3 Z " fill="#825C26" transform="translate(323,663)"/>
<path d="M0 0 C33.33 0 66.66 0 101 0 C101 0.99 101 1.98 101 3 C67.67 3 34.34 3 0 3 C0 2.01 0 1.02 0 0 Z " fill="#805820" transform="translate(459,561)"/>
<path d="M0 0 C0.33 0 0.66 0 1 0 C1 10.56 1 21.12 1 32 C-41.57 32 -84.14 32 -128 32 C-128 31.34 -128 30.68 -128 30 C-65.135 29.505 -65.135 29.505 -1 29 C-0.67 19.43 -0.34 9.86 0 0 Z " fill="#150402" transform="translate(560,664)"/>
<path d="M0 0 C0.66 0 1.32 0 2 0 C2 0.66 2 1.32 2 2 C46.88 2 91.76 2 138 2 C138 2.33 138 2.66 138 3 C92.79 3 47.58 3 1 3 C0.67 33.69 0.34 64.38 0 96 C-0.66 96 -1.32 96 -2 96 C-2.04636087 84.3690987 -2.08188833 72.73821941 -2.10362434 61.10724449 C-2.11405705 55.70639149 -2.128207 50.30560175 -2.15087891 44.90478516 C-2.17262541 39.69173181 -2.18457249 34.47873928 -2.18975449 29.26564407 C-2.19344698 27.27775744 -2.20065748 25.2898741 -2.21146011 23.3020134 C-2.22599895 20.51555971 -2.22797693 17.72935667 -2.22705078 14.94287109 C-2.23424133 14.12287628 -2.24143188 13.30288147 -2.24884033 12.45803833 C-2.23250204 7.90881082 -1.73059514 4.28531636 0 0 Z " fill="#714D17" transform="translate(423,592)"/>
<path d="M0 0 C0.66 0 1.32 0 2 0 C2 21.78 2 43.56 2 66 C-20.11 66 -42.22 66 -65 66 C-65 65.67 -65 65.34 -65 65 C-43.88 65 -22.76 65 -1 65 C-1.33 44.21 -1.66 23.42 -2 2 C-1.34 2 -0.68 2 0 2 C0 1.34 0 0.68 0 0 Z " fill="#885C25" transform="translate(660,494)"/>
<path d="M0 0 C11.22 0 22.44 0 34 0 C34 10.89 34 21.78 34 33 C33.34 33 32.68 33 32 33 C32 23.1 32 13.2 32 3 C26.4359488 3.36575051 26.4359488 3.36575051 20.87304688 3.74829102 C15.75782672 4.05842732 11.06560915 3.78423995 6 3 C5.19070518 6.60870608 4.82185917 10.04461938 4.68359375 13.73828125 C4.64169922 14.80498047 4.59980469 15.87167969 4.55664062 16.97070312 C4.49766602 18.62489258 4.49766602 18.62489258 4.4375 20.3125 C4.37272461 21.99569336 4.37272461 21.99569336 4.30664062 23.71289062 C4.20085213 26.47514569 4.09876328 29.2374863 4 32 C2.68 32.66 1.36 33.32 0 34 C0 22.78 0 11.56 0 0 Z " fill="#825B22" transform="translate(560,663)"/>
<path d="M0 0 C0.66 0 1.32 0 2 0 C3.76400386 5.79752773 3.22590966 12.00150648 3.25 18 C3.270625 19.28390625 3.29125 20.5678125 3.3125 21.890625 C3.32023438 23.73914063 3.32023438 23.73914063 3.328125 25.625 C3.3374707 26.75164063 3.34681641 27.87828125 3.35644531 29.0390625 C2.94655541 32.44395616 2.41848902 33.60349941 0 36 C-2.75680542 36.48774719 -2.75680542 36.48774719 -6.13623047 36.4699707 C-7.40119354 36.47289627 -8.66615662 36.47582184 -9.9694519 36.47883606 C-11.35203757 36.46171754 -12.73461614 36.44401834 -14.1171875 36.42578125 C-15.5358128 36.42085612 -16.95444461 36.41755804 -18.37307739 36.41581726 C-21.34739929 36.40817507 -24.32124034 36.38761383 -27.29541016 36.35668945 C-31.10068005 36.31718662 -34.90563668 36.29909149 -38.71108818 36.28938007 C-42.34649674 36.27938172 -45.98182972 36.25951509 -49.6171875 36.23828125 C-50.65338037 36.23318763 -50.65338037 36.23318763 -51.71050644 36.2279911 C-53.67537017 36.21635432 -55.64018242 36.19683936 -57.60498047 36.17700195 C-59.28018265 36.16223564 -59.28018265 36.16223564 -60.98922729 36.14717102 C-63.76713869 36.01138261 -66.29590435 35.62949404 -69 35 C-69 34.34 -69 33.68 -69 33 C-46.23 33 -23.46 33 0 33 C0 22.11 0 11.22 0 0 Z " fill="#835820" transform="translate(629,732)"/>
<path d="M0 0 C22.11 0 44.22 0 67 0 C67 44.55 67 89.1 67 135 C66.34 134.67 65.68 134.34 65 134 C65 90.77 65 47.54 65 3 C62.26635853 1.63317926 60.04962521 1.83734537 56.98974609 1.79467773 C55.72858978 1.77473251 54.46743347 1.75478729 53.1680603 1.73423767 C51.78652063 1.71725335 50.40497966 1.70037454 49.0234375 1.68359375 C47.61381418 1.6630244 46.20419703 1.64202793 44.79458618 1.62062073 C41.08252965 1.56539805 37.37041743 1.51598969 33.65826416 1.46777344 C29.87108397 1.41755982 26.08398474 1.36187303 22.296875 1.30664062 C14.86465188 1.19905667 7.43236148 1.09761227 0 1 C0 0.67 0 0.34 0 0 Z " fill="#7E5C37" transform="translate(595,697)"/>
<path d="M0 0 C0.99 0.33 1.98 0.66 3 1 C2.34 1 1.68 1 1 1 C1.14107747 2.45880109 1.28802415 3.91703551 1.4375 5.375 C1.51871094 6.18710937 1.59992187 6.99921875 1.68359375 7.8359375 C1.89090114 10.04272805 1.89090114 10.04272805 3 12 C3.08342159 13.44848582 3.10732861 14.90070869 3.09765625 16.3515625 C3.09515869 17.11807129 3.09266113 17.88458008 3.09008789 18.67431641 C3.07643188 20.13490479 3.07643188 20.13490479 3.0625 21.625 C3.041875 24.71875 3.02125 27.8125 3 31 C12.24 31 21.48 31 31 31 C30.63221565 22.29415656 30.63221565 22.29415656 30.25170898 13.58886719 C30.20860596 12.50250977 30.16550293 11.41615234 30.12109375 10.296875 C30.0739624 9.18666992 30.02683105 8.07646484 29.97827148 6.93261719 C29.99714789 4.38493859 30.23779308 2.41237207 31 0 C32.485 0.495 32.485 0.495 34 1 C33.67 11.56 33.34 22.12 33 33 C22.11 33 11.22 33 0 33 C0 22.11 0 11.22 0 0 Z " fill="#15010B" transform="translate(629,833)"/>
<path d="M0 0 C3 3 3 3 3.34057617 5.54370117 C3.32486572 6.53345947 3.30915527 7.52321777 3.29296875 8.54296875 C3.28547607 9.51000732 3.2779834 10.4770459 3.27026367 11.47338867 C3.22929565 13.31187378 3.22929565 13.31187378 3.1875 15.1875 C3.125625 19.085625 3.06375 22.98375 3 27 C16.365 27.495 16.365 27.495 30 28 C30 28.99 30 29.98 30 31 C20.1 31 10.2 31 0 31 C0 20.77 0 10.54 0 0 Z " fill="#8A5C18" transform="translate(562,597)"/>
<path d="M0 0 C10.89 0 21.78 0 33 0 C32.34 0.99 31.68 1.98 31 3 C28.31030273 3.32470703 28.31030273 3.32470703 24.93359375 3.2578125 C23.72638672 3.24363281 22.51917969 3.22945313 21.27539062 3.21484375 C20.00888672 3.18519531 18.74238281 3.15554688 17.4375 3.125 C14.93626503 3.08185338 12.43495933 3.04257226 9.93359375 3.0078125 C8.82040771 2.98348145 7.70722168 2.95915039 6.56030273 2.93408203 C4.06621038 2.70423186 4.06621038 2.70423186 3 4 C2.93683305 5.96515202 2.94074495 7.93252952 2.97265625 9.8984375 C2.98490234 11.09984375 2.99714844 12.30125 3.00976562 13.5390625 C3.04481527 16.08859999 3.0838534 18.63808589 3.12695312 21.1875 C3.13791016 22.39148438 3.14886719 23.59546875 3.16015625 24.8359375 C3.17699463 25.94501465 3.19383301 27.0540918 3.21118164 28.19677734 C3 31 3 31 1 34 C0.34 33.67 -0.32 33.34 -1 33 C-0.67 22.11 -0.34 11.22 0 0 Z " fill="#0E0008" transform="translate(323,459)"/>
<path d="M0 0 C1.2546254 0.0136409 2.50925079 0.0272818 3.80189514 0.04133606 C5.1718913 0.06190226 6.5418813 0.08288285 7.91186523 0.10424805 C9.31525946 0.12348069 10.71865612 0.14253649 12.12205505 0.16142273 C15.06174391 0.20238665 18.00133269 0.24761134 20.94091797 0.29541016 C24.71272052 0.35609787 28.48455559 0.40296049 32.25659275 0.44624043 C35.15369714 0.48154905 38.05061416 0.52579176 40.94755363 0.57259178 C42.33860823 0.59366839 43.72971476 0.6115614 45.12085152 0.6262455 C47.06246421 0.64775529 49.00391128 0.6829192 50.9453125 0.71875 C52.05101089 0.73508987 53.15670929 0.75142975 54.2959137 0.76826477 C56.90795898 1.0534668 56.90795898 1.0534668 58.90795898 3.0534668 C36.46795898 3.0534668 14.02795898 3.0534668 -9.09204102 3.0534668 C-9.09204102 2.3934668 -9.09204102 1.7334668 -9.09204102 1.0534668 C-5.80422413 -0.04247217 -3.45925974 -0.04362191 0 0 Z " fill="#885D25" transform="translate(570.092041015625,726.946533203125)"/>
<path d="M0 0 C2 2 2 2 2.16015625 5.91796875 C2.13587715 7.674613 2.10256539 9.4311449 2.0625 11.1875 C1.96578102 18.20738745 2.00473781 25.20063764 2.28515625 32.21484375 C2.31229202 32.91141586 2.3394278 33.60798798 2.36738586 34.32566833 C2.47800301 37.11837245 2.5909947 39.91074179 2.72390747 42.70248413 C2.81720707 44.66843363 2.89713446 46.63500372 2.9765625 48.6015625 C3.02893066 49.73932129 3.08129883 50.87708008 3.13525391 52.04931641 C2.99969445 55.00666582 2.64702217 56.56908951 1 59 C-2.06594594 60.53297297 -5.27111853 60.12131455 -8.6328125 60.09765625 C-9.76056595 60.09553383 -9.76056595 60.09553383 -10.91110229 60.09336853 C-13.3157751 60.08776465 -15.72035527 60.07521157 -18.125 60.0625 C-19.75390491 60.0574855 -21.38281127 60.0529225 -23.01171875 60.04882812 C-27.00784827 60.03779397 -31.00390842 60.02052679 -35 60 C-35 59.67 -35 59.34 -35 59 C-17.675 58.505 -17.675 58.505 0 58 C0 38.86 0 19.72 0 0 Z " fill="#140400" transform="translate(596,570)"/>
<path d="M0 0 C0.33 0 0.66 0 1 0 C1.02683987 2.97922593 1.04676037 5.95821295 1.0625 8.9375 C1.07087891 9.78763672 1.07925781 10.63777344 1.08789062 11.51367188 C1.09111328 12.32255859 1.09433594 13.13144531 1.09765625 13.96484375 C1.10289307 14.7137085 1.10812988 15.46257324 1.11352539 16.23413086 C1 18 1 18 0 19 C-3.07454761 19.09532328 -6.12659158 19.1255138 -9.20141602 19.11352539 C-10.65004028 19.11374443 -10.65004028 19.11374443 -12.12792969 19.1139679 C-15.33661099 19.11326834 -18.54523503 19.10547397 -21.75390625 19.09765625 C-23.97208118 19.09579222 -26.19025652 19.09436825 -28.40843201 19.09336853 C-34.25940071 19.08954216 -40.11034477 19.07971086 -45.96130371 19.06866455 C-51.92667304 19.05845299 -57.89204633 19.05387146 -63.85742188 19.04882812 C-75.57162544 19.03808869 -87.28581067 19.02101085 -99 19 C-99 18.67 -99 18.34 -99 18 C-97.78699722 17.98969254 -96.57399445 17.97938507 -95.32423401 17.96876526 C-83.91948082 17.87121162 -72.51478439 17.76849515 -61.11012363 17.66066074 C-55.24620552 17.60538334 -49.38228246 17.55195578 -43.51831055 17.50268555 C-37.86433855 17.45511288 -32.21042934 17.40277293 -26.55653191 17.34705925 C-24.39428193 17.32660342 -22.23201472 17.30789581 -20.06973457 17.29092598 C-17.05236675 17.26695316 -14.03511881 17.23688925 -11.01782227 17.20532227 C-10.1143959 17.1995668 -9.21096954 17.19381134 -8.28016663 17.18788147 C-4.32275877 17.53308865 -4.32275877 17.53308865 -1 16 C-0.76321284 13.30764224 -0.57801975 10.63501844 -0.4375 7.9375 C-0.37272461 6.79958008 -0.37272461 6.79958008 -0.30664062 5.63867188 C-0.20026367 3.75934562 -0.09960066 1.87969756 0 0 Z " fill="#0D0107" transform="translate(626,880)"/>
<path d="M0 0 C0.33 0 0.66 0 1 0 C1.02505615 0.90355225 1.0501123 1.80710449 1.07592773 2.73803711 C1.17087317 6.0796428 1.27011621 9.42106252 1.37231445 12.76245117 C1.4157163 14.2106424 1.45738744 15.65888654 1.49731445 17.10717773 C1.55489062 19.18489559 1.61862028 21.26234573 1.68359375 23.33984375 C1.72025146 24.59144287 1.75690918 25.84304199 1.79467773 27.13256836 C1.67803906 29.89630504 1.67803906 29.89630504 3 31 C5.37338639 31.15971977 7.72118272 31.2592433 10.09765625 31.31640625 C10.80651474 31.33718735 11.51537323 31.35796844 12.24571228 31.37937927 C14.51787305 31.44494598 16.79015264 31.5037923 19.0625 31.5625 C20.59962183 31.60567849 22.1367315 31.64929255 23.67382812 31.69335938 C27.4490959 31.80063449 31.2244836 31.90188137 35 32 C36.0625 33.8125 36.0625 33.8125 37 36 C36.67 36.99 36.34 37.98 36 39 C35.67 37.35 35.34 35.7 35 34 C23.45 34 11.9 34 0 34 C0 22.78 0 11.56 0 0 Z " fill="#6B2251" transform="translate(663,425)"/>
<path d="M0 0 C0.33 0 0.66 0 1 0 C1.02465288 4.68139254 1.04283739 9.36274759 1.05493164 14.04418945 C1.05997157 15.63794614 1.0668035 17.23169819 1.07543945 18.82543945 C1.08751999 21.11150253 1.09323155 23.39750467 1.09765625 25.68359375 C1.10281754 26.40026718 1.10797882 27.11694061 1.11329651 27.85533142 C1.11349263 29.57063672 1.06192007 31.28581266 1 33 C0 34 0 34 -3.14282227 34.11352539 C-4.53402697 34.11336633 -5.92523761 34.10767506 -7.31640625 34.09765625 C-8.04746078 34.0962413 -8.77851532 34.09482635 -9.53172302 34.09336853 C-11.87535632 34.08775408 -14.21889539 34.07519922 -16.5625 34.0625 C-18.14778508 34.05748686 -19.73307166 34.05292363 -21.31835938 34.04882812 C-25.2122761 34.03777997 -29.10612205 34.02050572 -33 34 C-33 33.34 -33 32.68 -33 32 C-32.06615479 31.97494385 -31.13230957 31.9498877 -30.17016602 31.92407227 C-26.71674811 31.82913072 -23.2635104 31.72988742 -19.81030273 31.62768555 C-18.31360731 31.58428187 -16.81686061 31.54261087 -15.32006836 31.50268555 C-13.17285688 31.44511384 -11.02590479 31.38138284 -8.87890625 31.31640625 C-7.5854126 31.27974854 -6.29191895 31.24309082 -4.95922852 31.20532227 C-2.11444992 31.3332722 -2.11444992 31.3332722 -1 30 C-0.84126045 27.78312006 -0.74866163 25.56144702 -0.68359375 23.33984375 C-0.66281265 22.67537735 -0.64203156 22.01091095 -0.62062073 21.3263092 C-0.55506342 19.19681457 -0.49621215 17.06719332 -0.4375 14.9375 C-0.39432061 13.49673153 -0.35070651 12.05597601 -0.30664062 10.61523438 C-0.19937607 7.0769596 -0.09812629 3.53854131 0 0 Z " fill="#611D43" transform="translate(322,459)"/>
<path d="M0 0 C0.66 0 1.32 0 2 0 C2 0.66 2 1.32 2 2 C2.66 2 3.32 2 4 2 C4 12.56 4 23.12 4 34 C3.01 34 2.02 34 1 34 C0.67 22.78 0.34 11.56 0 0 Z " fill="#7E581A" transform="translate(560,526)"/>
<path d="M0 0 C2.73107181 4.09660772 3.12744752 6.84003217 3.1328125 11.65625 C3.13410156 12.76097656 3.13539063 13.86570312 3.13671875 15.00390625 C3.13285156 16.15761719 3.12898438 17.31132813 3.125 18.5 C3.12886719 19.65371094 3.13273437 20.80742188 3.13671875 21.99609375 C3.13542969 23.10082031 3.13414062 24.20554687 3.1328125 25.34375 C3.13112061 26.86258789 3.13112061 26.86258789 3.12939453 28.41210938 C3 31 3 31 2 34 C1.34 34 0.68 34 0 34 C0 22.78 0 11.56 0 0 Z " fill="#150601" transform="translate(357,663)"/>
<path d="M0 0 C0.99 0.33 1.98 0.66 3 1 C2.34 1 1.68 1 1 1 C1.14107747 2.45880109 1.28802415 3.91703551 1.4375 5.375 C1.51871094 6.18710937 1.59992187 6.99921875 1.68359375 7.8359375 C1.89090114 10.04272805 1.89090114 10.04272805 3 12 C3.08342159 13.44848582 3.10732861 14.90070869 3.09765625 16.3515625 C3.09443359 17.20234375 3.09121094 18.053125 3.08789062 18.9296875 C3.07951172 19.81914063 3.07113281 20.70859375 3.0625 21.625 C3.05798828 22.5221875 3.05347656 23.419375 3.04882812 24.34375 C3.03702591 26.56256648 3.02056155 28.78125018 3 31 C2.34 31 1.68 31 1 31 C0.67 31.66 0.34 32.32 0 33 C0 22.11 0 11.22 0 0 Z " fill="#190601" transform="translate(629,833)"/>
<path d="M0 0 C0.33 0 0.66 0 1 0 C1 11.22 1 22.44 1 34 C-9.89 34 -20.78 34 -32 34 C-32 33.67 -32 33.34 -32 33 C-22.43 32.67 -12.86 32.34 -3 32 C-2.67 31.34 -2.34 30.68 -2 30 C-1.34 30 -0.68 30 0 30 C0 20.1 0 10.2 0 0 Z " fill="#652049" transform="translate(355,425)"/>
<path d="M0 0 C10.89 0 21.78 0 33 0 C33 0.33 33 0.66 33 1 C32.09644775 1.02505615 31.19289551 1.0501123 30.26196289 1.07592773 C26.9203572 1.17087317 23.57893748 1.27011621 20.23754883 1.37231445 C18.7893576 1.4157163 17.34111346 1.45738744 15.89282227 1.49731445 C13.81510441 1.55489062 11.73765427 1.61862028 9.66015625 1.68359375 C8.40855713 1.72025146 7.15695801 1.75690918 5.86743164 1.79467773 C3.10369496 1.67803906 3.10369496 1.67803906 2 3 C1.84111908 5.28988781 1.74861927 7.58443441 1.68359375 9.87890625 C1.66281265 10.5655687 1.64203156 11.25223114 1.62062073 11.95970154 C1.55505857 14.16052935 1.49620985 16.36147975 1.4375 18.5625 C1.39432108 20.05144514 1.350707 21.54037773 1.30664062 23.02929688 C1.1993707 26.68606553 1.09812228 30.34297318 1 34 C0.34 33.67 -0.32 33.34 -1 33 C-0.67 22.11 -0.34 11.22 0 0 Z " fill="#290119" transform="translate(323,459)"/>
<path d="M0 0 C9.24 0 18.48 0 28 0 C28 9.57 28 19.14 28 29 C27.34 29.33 26.68 29.66 26 30 C26.00523682 29.22285645 26.01047363 28.44571289 26.01586914 27.64501953 C26.03660156 24.13835451 26.04964821 20.63170237 26.0625 17.125 C26.07087891 15.90167969 26.07925781 14.67835938 26.08789062 13.41796875 C26.09111328 12.25136719 26.09433594 11.08476563 26.09765625 9.8828125 C26.10289307 8.80402832 26.10812988 7.72524414 26.11352539 6.61376953 C26.17883106 4.01767814 26.17883106 4.01767814 25 2 C16.75 1.67 8.5 1.34 0 1 C0 0.67 0 0.34 0 0 Z " fill="#8D5F27" transform="translate(327,664)"/>
<path d="M0 0 C0.99 0.33 1.98 0.66 3 1 C3.05830787 4.39576062 3.09369946 7.7913915 3.125 11.1875 C3.15013672 12.62706055 3.15013672 12.62706055 3.17578125 14.09570312 C3.18222656 15.02705078 3.18867188 15.95839844 3.1953125 16.91796875 C3.20578613 17.77156982 3.21625977 18.6251709 3.22705078 19.50463867 C2.97204194 22.30726815 2.15541422 24.44729419 1 27 C0.67 27 0.34 27 0 27 C0 18.09 0 9.18 0 0 Z " fill="#8C5F11" transform="translate(427,496)"/>
<path d="M0 0 C0.66 0 1.32 0 2 0 C2.33 7.92 2.66 15.84 3 24 C2.01 24 1.02 24 0 24 C0 16.08 0 8.16 0 0 Z " fill="#110000" transform="translate(596,672)"/>
<path d="M0 0 C0.33 0.99 0.66 1.98 1 3 C0.67 3.66 0.34 4.32 0 5 C-2.64 5 -5.28 5 -8 5 C-8 4.34 -8 3.68 -8 3 C-13.28 3 -18.56 3 -24 3 C-24 2.67 -24 2.34 -24 2 C-23.40461426 1.97494385 -22.80922852 1.9498877 -22.19580078 1.92407227 C-19.50530864 1.80822506 -16.8151766 1.68544804 -14.125 1.5625 C-13.18785156 1.52318359 -12.25070312 1.48386719 -11.28515625 1.44335938 C-10.38925781 1.40146484 -9.49335937 1.35957031 -8.5703125 1.31640625 C-7.32918701 1.26141968 -7.32918701 1.26141968 -6.06298828 1.20532227 C-3.76656083 0.97676659 -2.31196144 0 0 0 Z " fill="#871F60" transform="translate(696,833)"/>
<path d="M0 0 C10.89 0 21.78 0 33 0 C32.34 0.99 31.68 1.98 31 3 C30.34 3 29.68 3 29 3 C29 2.34 29 1.68 29 1 C21.08 1 13.16 1 5 1 C4.67 1.66 4.34 2.32 4 3 C4 2.34 4 1.68 4 1 C2.68 0.67 1.36 0.34 0 0 Z " fill="#130300" transform="translate(323,697)"/>
<path d="M0 0 C0.99 0.99 1.98 1.98 3 3 C2.70727539 4.87597656 2.70727539 4.87597656 2 7 C1.85701869 8.6586512 1.75458775 10.3210869 1.68359375 11.984375 C1.64169922 12.91894531 1.59980469 13.85351562 1.55664062 14.81640625 C1.51732422 15.78449219 1.47800781 16.75257813 1.4375 17.75 C1.39431641 18.73355469 1.35113281 19.71710937 1.30664062 20.73046875 C1.20077948 23.15351275 1.09869829 25.5766554 1 28 C0.67 28 0.34 28 0 28 C0 18.76 0 9.52 0 0 Z " fill="#8E5C27" transform="translate(562,597)"/>
<path d="M0 0 C1.32 0 2.64 0 4 0 C4 0.66 4 1.32 4 2 C3.51917969 2.41894531 3.03835938 2.83789062 2.54296875 3.26953125 C0.40227725 5.67035741 0.49898627 7.51723334 0.3125 10.6875 C0.24675781 11.68136719 0.18101562 12.67523437 0.11328125 13.69921875 C0.07589844 14.45847656 0.03851563 15.21773437 0 16 C-0.33 16 -0.66 16 -1 16 C-1.02712153 14.083412 -1.04645097 12.1667127 -1.0625 10.25 C-1.07410156 9.18265625 -1.08570313 8.1153125 -1.09765625 7.015625 C-1.01510087 4.46631499 -0.74617558 2.42066409 0 0 Z " fill="#90581D" transform="translate(491,864)"/>
<path d="M0 0 C3.3 0 6.6 0 10 0 C10.33 0.66 10.66 1.32 11 2 C7.37 2.33 3.74 2.66 0 3 C0 2.01 0 1.02 0 0 Z " fill="#120201" transform="translate(560,660)"/>
<path d="M0 0 C0.33 0 0.66 0 1 0 C1 1.98 1 3.96 1 6 C-0.65 6 -2.3 6 -4 6 C-2.69593116 3.98079663 -1.36176581 1.98075027 0 0 Z " fill="#130000" transform="translate(423,520)"/>
<path d="M0 0 C0.99 0 1.98 0 3 0 C3.33 0.99 3.66 1.98 4 3 C2.66666667 4.33333333 1.33333333 5.66666667 0 7 C-0.93423645 3.98968256 -1.04449911 3.13349732 0 0 Z " fill="#852359" transform="translate(665,833)"/>
</svg>
