<svg xmlns="http://www.w3.org/2000/svg" style="display: none;">
  <defs>
    <symbol id="send" width="24" height="24" viewBox="0 0 24 24">
      <path d="M2.01 21 23 12 2.01 3 2 10l15 2-15 2 .01 7Z"/>
    </symbol>
    <symbol id="arrow-right" width="24" height="24" viewBox="0 0 24 24">
      <path d="m14.2 4.8 6.5 6.5.71.7-.7.7-6.5 6.5-1.42-1.4 4.8-4.8H3v-2h14.59l-4.8-4.8 1.42-1.4Z"/>
    </symbol>
    <symbol id="chevron-right" width="24" height="24" viewBox="0 0 24 24">
      <path d="m13.59 12-5.8-5.8 1.42-1.4 6.5 6.5.7.7-.7.7-6.5 6.5-1.42-1.4 5.8-5.8Z"/>
    </symbol>
    <symbol id="github" width="24" height="24" viewBox="0 0 24 24">
      <path d="M12 2a10 10 0 0 0-3.16 19.5c.5.08.66-.23.66-.5v-1.69c-2.77.6-3.36-1.34-3.36-1.34-.46-1.16-1.11-1.47-1.11-1.47-.91-.62.07-.6.07-.6 1 .07 1.53 1.03 1.53 1.03.87 1.52 2.34 1.07 2.91.83.09-.65.35-1.09.63-1.34-2.22-.25-4.55-1.11-4.55-4.92 0-1.11.38-2 1.03-2.71-.1-.25-.45-1.29.1-2.64 0 0 .84-.27 2.75 1.02a9.42 9.42 0 0 1 5 0c1.91-1.29 2.75-1.02 2.75-1.02.55 1.35.2 2.39.1 2.64.65.71 1.03 1.6 1.03 2.71 0 3.82-2.34 4.66-4.57 4.91.36.31.69.92.69 1.85V21c0 .27.16.59.67.5a10.03 10.03 0 0 0 3.9-16.57A10 10 0 0 0 12 2Z"/>
    </symbol>
    <symbol id="menu" width="24" height="24" viewBox="0 0 24 24">
      <path d="M22 6H2V4h20v2ZM2 13h16v-2H2v2Zm0 7h20v-2H2v2Z"/>
    </symbol>
    <symbol id="medium" width="24" height="24" viewBox="0 0 24 24">
<svg fill="#000000" viewBox="0 0 256 256" id="Flat" xmlns="http://www.w3.org/2000/svg"><g id="SVGRepo_bgCarrier" stroke-width="0"></g><g id="SVGRepo_tracerCarrier" stroke-linecap="round" stroke-linejoin="round"></g><g id="SVGRepo_iconCarrier"> <path d="M128,128c0,33.13721-25.07227,60-56,60s-56-26.86279-56-60S41.07227,68,72,68,128,94.86281,128,128Zm56-56c-13.25488,0-24,25.07227-24,56s10.74512,56,24,56,24-25.07226,24-56S197.25488,72,184,72Z" opacity="0.2"></path> <path d="M72,60C36.71,60,8,90.5049,8,128s28.71,68,64,68,64-30.50488,64-68S107.29,60,72,60Zm0,120c-26.46729,0-48-23.32715-48-52S45.53271,76,72,76s48,23.32715,48,52S98.46729,180,72,180ZM184,64c-5.68262,0-16.39941,2.76074-24.32373,21.251C154.72607,96.8008,152,111.98342,152,128s2.72607,31.19922,7.67627,42.749C167.60059,189.23928,178.31738,192,184,192s16.39941-2.76074,24.32373-21.251C213.27393,159.19924,216,144.01662,216,128s-2.72607-31.19922-7.67627-42.749C200.39941,66.76076,189.68262,64,184,64Zm0,112c-5.64062,0-16-18.22363-16-48s10.35938-48,16-48,16,18.22363,16,48S189.64062,176,184,176ZM248,72V184a8,8,0,0,1-16,0V72a8,8,0,0,1,16,0Z"></path> </g></svg>    </symbol>
    <symbol id="copy" width="24" height="24" viewBox="0 0 24 24">
      <path d="M3 2h12v4H7v10H3V2Zm6 20V8h12v11l-3 3H9Z"/>
    </symbol>
    <symbol id="error" width="24" height="24" viewBox="0 0 24 24">
      <path d="M19.7 19H4.3L12 5.07 19.7 19ZM11.12 2.52l-9.39 17L2.61 21h18.78l.88-1.48-9.4-17h-1.75ZM11 14v-4h2v4h-2Zm0 3v-2h2v2h-2Z"/>
    </symbol>
    <symbol id="arrow-left" width="24" height="24" viewBox="0 0 24 24">
      <path d="m9.8 19.2-6.5-6.5-.71-.7.7-.7 6.5-6.5 1.42 1.4L6.4 11H21v2H6.41l4.8 4.8-1.42 1.4Z"/>
    </symbol>
    <symbol id="check" width="24" height="24" viewBox="0 0 24 24">
      <path d="m20.2 7.2-10 10-.7.71-.7-.7-5-5 1.4-1.42 4.3 4.3 9.3-9.3 1.4 1.42Z"/>
    </symbol>
    <symbol id="link" width="24" height="24" viewBox="0 0 24 24">
      <path d="M9 4 8 5v2h2V6h10v7H10v-2H8v3l1 1h12l1-1V5l-1-1H9Zm2 4H3L2 9v9l1 1h12l1-1v-2h-2v1H4v-7h10v2h2V9l-1-1h-4Z"/>
    </symbol>
    <symbol id="close" width="24" height="24" viewBox="0 0 24 24">
      <path d="M19 6.41 17.59 5 12 10.59 6.41 5 5 6.41 10.59 12 5 17.59 6.41 19 12 13.41 17.59 19 19 17.59 13.41 12 19 6.41Z"/>
    </symbol>
    <symbol id="pause" width="24" height="24" viewBox="0 0 24 24">
      <path d="M6 19h4V5H6v14Zm8-14v14h4V5h-4Z"/>
    </symbol>
    <symbol id="play" width="24" height="24" viewBox="0 0 24 24">
      <path d="M8 5v14l11-7L8 5Z"/>
    </symbol>
    <symbol id="linkedin" width="24" height="24" viewBox="0 0 24 24">
     <svg viewBox="0 0 16 16" xmlns="http://www.w3.org/2000/svg" fill="none"><g id="SVGRepo_bgCarrier" stroke-width="0"></g><g id="SVGRepo_tracerCarrier" stroke-linecap="round" stroke-linejoin="round"></g><g id="SVGRepo_iconCarrier"><path fill="#0A66C2" d="M12.225 12.225h-1.778V9.44c0-.664-.012-1.519-.925-1.519-.926 0-1.068.724-1.068 1.47v2.834H6.676V6.498h1.707v.783h.024c.348-.594.996-.95 1.684-.925 1.802 0 2.135 1.185 2.135 2.728l-.001 3.14zM4.67 5.715a1.037 1.037 0 01-1.032-1.031c0-.566.466-1.032 1.032-1.032.566 0 1.031.466 1.032 1.032 0 .566-.466 1.032-1.032 1.032zm.889 6.51h-1.78V6.498h1.78v5.727zM13.11 2H2.885A.88.88 0 002 2.866v10.268a.88.88 0 00.885.866h10.226a.882.882 0 00.889-.866V2.865a.88.88 0 00-.889-.864z"></path></g></svg>
         </symbol>
         <symbol id="hackthebox" width="24" height="24" viewBox="0 0 24 24">
<svg fill="#becc00" viewBox="0 0 24 24" role="img" xmlns="http://www.w3.org/2000/svg" stroke="#becc00"><g id="SVGRepo_bgCarrier" stroke-width="0"></g><g id="SVGRepo_tracerCarrier" stroke-linecap="round" stroke-linejoin="round"></g><g id="SVGRepo_iconCarrier"><path d="M11.996 0a1.119 1.119 0 0 0-.057.003.9.9 0 0 0-.236.05.907.907 0 0 0-.165.079L1.936 5.675a.889.889 0 0 0-.445.77v11.111a.889.889 0 0 0 .47.784l9.598 5.541.054.029v.002a.857.857 0 0 0 .083.035l.012.004c.028.01.056.018.085.024.01.001.011.003.016.004a.93.93 0 0 0 .296.015.683.683 0 0 0 .086-.015c.01 0 .011-.002.016-.004a.94.94 0 0 0 .085-.024l.012-.004a.882.882 0 0 0 .083-.035v-.002a1.086 1.086 0 0 0 .054-.029l9.599-5.541a.889.889 0 0 0 .469-.784V6.48l-.001-.026v-.008a.889.889 0 0 0-.312-.676l-.029-.024c0-.002-.01-.005-.01-.007a.899.899 0 0 0-.107-.07L12.453.127A.887.887 0 0 0 11.99 0zm.01 2.253c.072 0 .144.019.209.056l6.537 3.774a.418.418 0 0 1 0 .724l-6.537 3.774a.418.418 0 0 1-.418 0L5.26 6.807a.418.418 0 0 1 0-.724l6.537-3.774a.42.42 0 0 1 .209-.056zm-8.08 6.458a.414.414 0 0 1 .215.057l6.524 3.766a.417.417 0 0 1 .208.361v7.533a.417.417 0 0 1-.626.361l-6.523-3.766a.417.417 0 0 1-.209-.362V9.13c0-.241.196-.414.41-.418zm16.16 0c.215.004.41.177.41.418v7.532a.42.42 0 0 1-.208.362l-6.524 3.766a.417.417 0 0 1-.626-.361v-7.533c0-.149.08-.286.209-.36l6.523-3.767a.415.415 0 0 1 .216-.057z"></path></g></svg>
         </symbol>
    <symbol id="bugcrowd" width="24" height="24" viewBox="0 0 24 24">
<svg xmlns="http://www.w3.org/2000/svg" aria-label="Bugcrowd" role="img" viewBox="0 0 512 512" fill="#000000"><g id="SVGRepo_bgCarrier" stroke-width="0"></g><g id="SVGRepo_tracerCarrier" stroke-linecap="round" stroke-linejoin="round"></g><g id="SVGRepo_iconCarrier"><rect width="512" height="512" rx="15%" fill="#ffffff"></rect><path fill="#f26922" d="m38.5 260.4 107.1 185.1h219.5l109.1-185.1L365.1 66.5H145.6zm178.7-115.7c7.6 4.7 8.1 8.3 8.1 47v31.2l6.8-6.2c3.8-3.4 11.1-8.1 16.3-10.7c8.4-3.9 11.6-4.4 26.6-4.2c18.2 0 28.5 3 41.6 12.2c13.5 9.5 25.7 31.1 29.1 51.2c7.3 44.7-9.2 83.6-42.2 99.3c-10.9 5.1-12.7 5.4-30.2 5.4c-16.5 0-19.8-.5-28.1-4.4c-5.1-2.4-12.2-7.2-15.6-10.4l-6.5-5.9v18.1h-38.6V273c0-51.9-.5-94.9-1.2-95.5c-.6-.7-5.2-1.7-10-2.2l-8.8-.9V158.6c-.2-11.1.5-16.2 1.8-17c1.2-.7 11.9-1 23.7-.9c18.5.4 22.2.9 27.2 4zM258 236.4c-22.3 5.2-33.9 22.7-33.5 50.9c.2 28 14.6 47.6 36 49.1c13.8 1 22.5-1.9 31.3-10.7c18.4-18 19-59.2 1.4-77.9c-8.9-9.3-23.7-14.1-35.2-11.4z"></path></g></svg>
         </symbol>
         <symbol id="google" width="24" height="24" viewBox="0 0 24 24">
<svg viewBox="-0.5 0 48 48" version="1.1" xmlns="http://www.w3.org/2000/svg" xmlns:xlink="http://www.w3.org/1999/xlink" fill="#000000"><g id="SVGRepo_bgCarrier" stroke-width="0"></g><g id="SVGRepo_tracerCarrier" stroke-linecap="round" stroke-linejoin="round"></g><g id="SVGRepo_iconCarrier"> <title>Google-color</title> <desc>Created with Sketch.</desc> <defs> </defs> <g id="Icons" stroke="none" stroke-width="1" fill="none" fill-rule="evenodd"> <g id="Color-" transform="translate(-401.000000, -860.000000)"> <g id="Google" transform="translate(401.000000, 860.000000)"> <path d="M9.82727273,24 C9.82727273,22.4757333 10.0804318,21.0144 10.5322727,19.6437333 L2.62345455,13.6042667 C1.08206818,16.7338667 0.213636364,20.2602667 0.213636364,24 C0.213636364,27.7365333 1.081,31.2608 2.62025,34.3882667 L10.5247955,28.3370667 C10.0772273,26.9728 9.82727273,25.5168 9.82727273,24" id="Fill-1" fill="#FBBC05"> </path> <path d="M23.7136364,10.1333333 C27.025,10.1333333 30.0159091,11.3066667 32.3659091,13.2266667 L39.2022727,6.4 C35.0363636,2.77333333 29.6954545,0.533333333 23.7136364,0.533333333 C14.4268636,0.533333333 6.44540909,5.84426667 2.62345455,13.6042667 L10.5322727,19.6437333 C12.3545909,14.112 17.5491591,10.1333333 23.7136364,10.1333333" id="Fill-2" fill="#EB4335"> </path> <path d="M23.7136364,37.8666667 C17.5491591,37.8666667 12.3545909,33.888 10.5322727,28.3562667 L2.62345455,34.3946667 C6.44540909,42.1557333 14.4268636,47.4666667 23.7136364,47.4666667 C29.4455,47.4666667 34.9177955,45.4314667 39.0249545,41.6181333 L31.5177727,35.8144 C29.3995682,37.1488 26.7323182,37.8666667 23.7136364,37.8666667" id="Fill-3" fill="#34A853"> </path> <path d="M46.1454545,24 C46.1454545,22.6133333 45.9318182,21.12 45.6113636,19.7333333 L23.7136364,19.7333333 L23.7136364,28.8 L36.3181818,28.8 C35.6879545,31.8912 33.9724545,34.2677333 31.5177727,35.8144 L39.0249545,41.6181333 C43.3393409,37.6138667 46.1454545,31.6490667 46.1454545,24" id="Fill-4" fill="#4285F4"> </path> </g> </g> </g> </g></svg>        
 </symbol>
   <symbol id="hackerone" width="24" height="24" viewBox="0 0 24 24">
<svg fill="#a07e7e" viewBox="0 0 32 32" xmlns="http://www.w3.org/2000/svg"><g id="SVGRepo_bgCarrier" stroke-width="0"></g><g id="SVGRepo_tracerCarrier" stroke-linecap="round" stroke-linejoin="round"></g><g id="SVGRepo_iconCarrier"> <path d="M9.609 0c-0.645 0-1.172 0.136-1.579 0.401-0.405 0.265-0.609 0.615-0.609 1.036v29.084c0 0.364 0.209 0.703 0.631 1.009 0.421 0.313 0.937 0.469 1.557 0.469 0.588 0 1.109-0.156 1.557-0.469 0.448-0.307 0.672-0.645 0.672-1.009v-29.079c0-0.427-0.213-0.771-0.651-1.041-0.439-0.265-0.959-0.401-1.579-0.401zM22.307 11.547c-0.645 0-1.161 0.136-1.557 0.401l-5.916 3.713c-0.265 0.245-0.38 0.625-0.333 1.141 0.047 0.509 0.281 0.995 0.697 1.452 0.423 0.459 0.891 0.751 1.428 0.871 0.525 0.12 0.927 0.057 1.192-0.188l2.344-1.464v13.048c0 0.364 0.203 0.703 0.609 1.009 0.401 0.313 0.917 0.469 1.536 0.469 0.62 0 1.152-0.156 1.6-0.469 0.448-0.307 0.672-0.645 0.672-1.009v-17.537c0-0.427-0.219-0.771-0.652-1.036-0.432-0.265-0.973-0.401-1.62-0.401z"></path> </g></svg> 
</symbol>
 <symbol id="twitter" width="24" height="24" viewBox="0 0 24 24">
<svg viewBox="0 0 1024 1024" class="icon" version="1.1" xmlns="http://www.w3.org/2000/svg" fill="#000000"><g id="SVGRepo_bgCarrier" stroke-width="0"></g><g id="SVGRepo_tracerCarrier" stroke-linecap="round" stroke-linejoin="round"></g><g id="SVGRepo_iconCarrier"><path d="M362.41 879.648c-95.417 0-192.465-27.316-288.485-81.263-8.064-4.527-11.83-14.15-8.98-22.977 2.855-8.788 11.185-14.191 20.773-13.355 72.17 8.408 148.407-8.75 205.511-42.302-66.043-15.525-119.417-58.397-147.571-120.676a19.454 19.454 0 0 1 3.119-20.884c4.983-5.746 13.011-8.03 20.317-5.781a142.417 142.417 0 0 0 25.033 5.364c-50.106-29.903-103.784-87.197-103.784-172.987 0-7.531 4.335-14.379 11.11-17.573a19.353 19.353 0 0 1 20.654 2.47c6.241 5.099 12.938 9.362 19.821 12.708-14.339-19.44-26.781-43.562-33.857-70.8-12.972-49.989-5.478-100.585 21.683-146.351 3.233-5.516 9.018-9.054 15.372-9.514 6.238-0.681 12.552 2.249 16.584 7.27 57.332 71.633 159.212 158.183 323.066 174.01-3.003-51.854 12.556-136.841 84.154-178.653 87.462-51.13 173.248-44.434 245.606 18.983 32.263-7.187 83.202-29.291 93.741-36.673a19.516 19.516 0 0 1 22.33-0.04c6.696 4.683 9.779 13.052 7.686 20.963-4.87 18.375-15.864 38.765-29.6 57.027 10.881-3.233 20.012-6.505 24.882-9.014 7.837-3.997 17.308-2.322 23.318 4.146 5.937 6.505 6.775 16.131 2.097 23.587-22.942 36.218-59.959 69.963-84.727 88.222 9.931 121.587-39.26 255.425-132.998 360.459-99.976 111.966-233.776 173.634-376.781 173.634h-0.074z" fill="#2577FF"></path><path d="M773.705 209.378c11.484-2.559 25.333-7.039 38.885-12.041-50.557-43.083-107.542-58.134-158.074-50.884 36.738 5.548 86.781 34.522 119.189 62.925zM484.047 365.248c-0.152-2.646-0.222-5.432-0.275-8.24-133.027-2.397-266.805-97.597-324.061-174.009-3.863-5.155-10.347-7.952-16.584-7.271-6.354 0.46-12.138 3.998-15.371 9.514-2.83 4.767-5.318 9.616-7.72 14.483 86.352 148.04 212.727 150.909 364.011 165.523zM954.896 233.745c-6.012-6.466-15.483-8.141-23.32-4.144-4.87 2.509-14.002 5.781-24.882 9.014 13.736-18.262 24.73-38.652 29.6-57.027a19.502 19.502 0 0 0-7.686-20.963 19.52 19.52 0 0 0-22.33 0.039c-3.711 2.6-12.577 7.061-23.723 12.014 0.607 2.903 0.772 5.914-0.021 8.911-4.87 18.375-15.864 38.765-29.599 57.027 10.881-3.233 20.012-6.505 24.882-9.014 7.837-3.997 17.308-2.322 23.32 4.144 5.936 6.507 6.774 16.133 2.095 23.59-22.942 36.216-59.959 69.961-84.726 88.22 9.929 121.587-39.261 255.425-132.997 360.461C592.268 810.433 469.603 871.055 337.5 878.76c8.309 0.411 16.624 0.888 24.91 0.888h0.073c143.006 0 276.806-61.669 376.784-173.633 93.736-105.035 142.927-238.874 132.997-360.461 24.767-18.259 61.784-52.004 84.726-88.22 4.68-7.457 3.842-17.083-2.094-23.589z" fill=""></path></g></svg>
</symbol>
 <symbol id="blender" width="24" height="24" viewBox="0 0 24 24">
<svg viewBox="0 -24 256 256" version="1.1" xmlns="http://www.w3.org/2000/svg" xmlns:xlink="http://www.w3.org/1999/xlink" preserveAspectRatio="xMidYMid" fill="#000000"><g id="SVGRepo_bgCarrier" stroke-width="0"></g><g id="SVGRepo_tracerCarrier" stroke-linecap="round" stroke-linejoin="round"></g><g id="SVGRepo_iconCarrier"> <g> <path d="M100.43032,115.194555 C101.361124,98.5893536 109.492492,83.9599162 121.759794,73.5893487 C133.790003,63.4031858 149.98249,57.1773328 167.650214,57.1773328 C185.300375,57.1773328 201.492862,63.4031858 213.531852,73.5893487 C225.790373,83.9599162 233.921741,98.5893536 234.861326,115.176993 C235.792131,132.238816 228.934033,148.088836 216.903824,159.838048 C204.636522,171.789227 187.188328,179.288351 167.650214,179.288351 C148.1121,179.288351 130.62878,171.789227 118.37026,159.838048 C106.331269,148.088836 99.4907342,132.238816 100.43032,115.194555 Z" fill="#FFFFFF"> </path> <path d="M133.167672,116.676183 C133.645276,108.155909 137.817552,100.649417 144.112012,95.3281876 C150.284817,90.1015783 158.593324,86.9070386 167.658788,86.9070386 C176.71524,86.9070386 185.023747,90.1015783 191.201058,95.3281876 C197.491012,100.649417 201.663288,108.155909 202.145398,116.667172 C202.623002,125.421743 199.104052,133.554527 192.931246,139.58315 C186.636786,145.715405 177.683965,149.563271 167.658788,149.563271 C157.63361,149.563271 148.662766,145.715405 142.372812,139.58315 C136.195501,133.554527 132.685562,125.421743 133.167672,116.676183 Z" fill="#265787"> </path> <path d="M78.4107749,134.179185 C78.4694744,137.520542 79.5350962,144.01361 81.133529,149.084344 C84.4929469,159.817323 90.1913143,169.746571 98.1202631,178.497312 C106.256918,187.491883 116.276472,194.716438 127.849305,199.845871 C140.013649,205.23268 153.193946,207.978011 166.884477,207.955572 C180.552431,207.937373 193.732728,205.137858 205.897072,199.710411 C217.469906,194.531308 227.480429,187.275146 235.603538,178.27606 C243.527971,169.489196 249.217308,159.541887 252.585757,148.808908 C254.279012,143.385977 255.349149,137.881769 255.778107,132.3595 C256.198034,126.918508 256.021935,121.468484 255.249811,116.022976 C253.741685,105.411912 250.070708,95.4555722 244.417494,86.3797254 C239.247423,78.0398801 232.582771,70.7385646 224.658338,64.5931778 L224.676399,64.5796318 L144.705094,3.1754327 C144.632849,3.12124854 144.574149,3.06254903 144.497388,3.01288022 C139.250556,-1.01480899 130.427568,-1.00126295 124.656955,3.03545695 C118.823127,7.11733032 118.154856,13.8677736 123.347505,18.1257455 L123.324928,18.1483222 L156.679794,45.2720095 L55.0167639,45.3803778 L54.8813035,45.3803778 C46.4782434,45.3894085 38.4002883,50.9026468 36.8018556,57.8698267 C35.1582694,64.9679516 40.8656676,70.8559636 49.6028633,70.887571 L49.5893173,70.9191785 L101.118453,70.8198408 L9.16793408,141.399224 C9.05053507,141.485016 8.92410536,141.575323 8.81573704,141.661114 C0.14175613,148.303189 -2.66227414,159.347727 2.80129531,166.337484 C8.34614099,173.444639 20.1357111,173.458186 28.8999989,166.378122 L79.0835616,125.306529 C79.0835616,125.306529 78.3520754,130.851375 78.4107749,134.179185 Z M207.36456,152.74629 C197.024416,163.280594 182.548215,169.254398 166.884477,169.286098 C151.198163,169.313097 136.721962,163.393478 126.381818,152.877235 C121.329145,147.752317 117.61753,141.855274 115.328249,135.574427 C113.084122,129.401948 112.21266,122.85018 112.790624,116.239713 C113.336981,109.778252 115.260519,103.614804 118.330955,98.0383504 C121.347206,92.5567196 125.501325,87.6033843 130.630759,83.4131426 C140.681921,75.2223038 153.478413,70.7882334 166.8619,70.7701166 C180.258934,70.7521106 193.046396,75.1455429 203.106588,83.3092897 C208.226991,87.48147 212.376595,92.4167439 215.392846,97.889344 C218.476828,103.461282 220.38682,109.602153 220.955753,116.081676 C221.524687,122.683112 220.653225,129.22585 218.409098,135.402844 C216.115302,141.701753 212.417233,147.598795 207.36456,152.74629 Z" fill="#EA7600"> </path> </g> </g></svg>
</symbol>
 <symbol id="gitlab" width="24" height="24" viewBox="0 0 24 24">
<svg viewBox="0 0 16 16" xmlns="http://www.w3.org/2000/svg" fill="none"><g id="SVGRepo_bgCarrier" stroke-width="0"></g><g id="SVGRepo_tracerCarrier" stroke-linecap="round" stroke-linejoin="round"></g><g id="SVGRepo_iconCarrier"><path fill="#FC6D26" d="M14.975 8.904L14.19 6.55l-1.552-4.67a.268.268 0 00-.255-.18.268.268 0 00-.254.18l-1.552 4.667H5.422L3.87 1.879a.267.267 0 00-.254-.179.267.267 0 00-.254.18l-1.55 4.667-.784 2.357a.515.515 0 00.193.583l6.78 4.812 6.778-4.812a.516.516 0 00.196-.583z"></path><path fill="#E24329" d="M8 14.296l2.578-7.75H5.423L8 14.296z"></path><path fill="#FC6D26" d="M8 14.296l-2.579-7.75H1.813L8 14.296z"></path><path fill="#FCA326" d="M1.81 6.549l-.784 2.354a.515.515 0 00.193.583L8 14.3 1.81 6.55z"></path><path fill="#E24329" d="M1.812 6.549h3.612L3.87 1.882a.268.268 0 00-.254-.18.268.268 0 00-.255.18L1.812 6.549z"></path><path fill="#FC6D26" d="M8 14.296l2.578-7.75h3.614L8 14.296z"></path><path fill="#FCA326" d="M14.19 6.549l.783 2.354a.514.514 0 01-.193.583L8 14.296l6.188-7.747h.001z"></path><path fill="#E24329" d="M14.19 6.549H10.58l1.551-4.667a.267.267 0 01.255-.18c.115 0 .217.073.254.18l1.552 4.667z"></path></g></svg></symbol>
 <symbol id="youtube" width="24" height="24" viewBox="0 0 24 24">
<svg viewBox="0 -7 48 48" version="1.1" xmlns="http://www.w3.org/2000/svg" xmlns:xlink="http://www.w3.org/1999/xlink" fill="#000000"><g id="SVGRepo_bgCarrier" stroke-width="0"></g><g id="SVGRepo_tracerCarrier" stroke-linecap="round" stroke-linejoin="round"></g><g id="SVGRepo_iconCarrier"> <title>Youtube-color</title> <desc>Created with Sketch.</desc> <defs> </defs> <g id="Icons" stroke="none" stroke-width="1" fill="none" fill-rule="evenodd"> <g id="Color-" transform="translate(-200.000000, -368.000000)" fill="#CE1312"> <path d="M219.044,391.269916 L219.0425,377.687742 L232.0115,384.502244 L219.044,391.269916 Z M247.52,375.334163 C247.52,375.334163 247.0505,372.003199 245.612,370.536366 C243.7865,368.610299 241.7405,368.601235 240.803,368.489448 C234.086,368 224.0105,368 224.0105,368 L223.9895,368 C223.9895,368 213.914,368 207.197,368.489448 C206.258,368.601235 204.2135,368.610299 202.3865,370.536366 C200.948,372.003199 200.48,375.334163 200.48,375.334163 C200.48,375.334163 200,379.246723 200,383.157773 L200,386.82561 C200,390.73817 200.48,394.64922 200.48,394.64922 C200.48,394.64922 200.948,397.980184 202.3865,399.447016 C204.2135,401.373084 206.612,401.312658 207.68,401.513574 C211.52,401.885191 224,402 224,402 C224,402 234.086,401.984894 240.803,401.495446 C241.7405,401.382148 243.7865,401.373084 245.612,399.447016 C247.0505,397.980184 247.52,394.64922 247.52,394.64922 C247.52,394.64922 248,390.73817 248,386.82561 L248,383.157773 C248,379.246723 247.52,375.334163 247.52,375.334163 L247.52,375.334163 Z" id="Youtube"> </path> </g> </g> </g></svg>
</symbol>
 <symbol id="tryhackme" width="24" height="24" viewBox="0 0 24 24">

<svg role="img" viewBox="0 0 24 24" xmlns="http://www.w3.org/2000/svg" id="Tryhackme--Streamline-Simple-Icons" height="24" width="24"><desc>Tryhackme Streamline Icon: https://streamlinehq.com</desc><title>TryHackMe</title><path d="M10.705 0C7.54 0 4.902 2.285 4.349 5.291a4.525 4.525 0 0 0 -4.107 4.5 4.525 4.525 0 0 0 4.52 4.52h6.761a0.625 0.625 0 1 0 0 -1.25H4.761a3.273 3.273 0 0 1 -3.27 -3.27A3.273 3.273 0 0 1 6.59 7.08a0.625 0.625 0 0 0 0.7 -1.035 4.488 4.488 0 0 0 -1.68 -0.69 5.223 5.223 0 0 1 5.096 -4.104 5.221 5.221 0 0 1 5.174 4.57 4.489 4.489 0 0 0 -0.488 0.305 0.625 0.625 0 1 0 0.731 1.013 3.245 3.245 0 0 1 1.912 -0.616 3.278 3.278 0 0 1 3.203 2.61 0.625 0.625 0 0 0 1.225 -0.251 4.533 4.533 0 0 0 -4.428 -3.61 4.54 4.54 0 0 0 -0.958 0.105C16.556 2.328 13.9 0 10.705 0zm5.192 10.64a0.925 0.925 0 0 0 -0.462 0.108 0.913 0.913 0 0 0 -0.313 0.29 1.27 1.27 0 0 0 -0.175 0.427 2.39 2.39 0 0 0 -0.054 0.514c0 0.181 0.018 0.353 0.054 0.517 0.036 0.164 0.095 0.307 0.175 0.43a0.899 0.899 0 0 0 0.313 0.297c0.127 0.073 0.281 0.11 0.462 0.11 0.18 0 0.334 -0.037 0.46 -0.11a0.897 0.897 0 0 0 0.309 -0.296c0.08 -0.124 0.137 -0.267 0.173 -0.431 0.036 -0.164 0.054 -0.336 0.054 -0.517 0 -0.18 -0.018 -0.352 -0.054 -0.514a1.271 1.271 0 0 0 -0.173 -0.426 0.901 0.901 0 0 0 -0.309 -0.291 0.917 0.917 0 0 0 -0.46 -0.108zm6.486 0a0.925 0.925 0 0 0 -0.462 0.108 0.913 0.913 0 0 0 -0.313 0.29 1.27 1.27 0 0 0 -0.175 0.427 2.39 2.39 0 0 0 -0.053 0.514c0 0.181 0.017 0.353 0.053 0.517 0.036 0.164 0.095 0.307 0.175 0.43a0.899 0.899 0 0 0 0.313 0.297c0.127 0.073 0.281 0.11 0.462 0.11 0.18 0 0.334 -0.037 0.46 -0.11a0.897 0.897 0 0 0 0.31 -0.296c0.078 -0.124 0.136 -0.267 0.172 -0.431 0.036 -0.164 0.054 -0.336 0.054 -0.517 0 -0.18 -0.018 -0.352 -0.054 -0.514a1.271 1.271 0 0 0 -0.173 -0.426 0.901 0.901 0 0 0 -0.308 -0.291 0.916 0.916 0 0 0 -0.461 -0.108zm-8.537 0.068 -0.84 0.618 0.313 0.43 0.476 -0.368v1.877h0.603v-2.557zm6.486 0 -0.841 0.618 0.314 0.43 0.477 -0.368v1.877h0.603v-2.557zm-4.435 0.445c0.08 0 0.143 0.028 0.193 0.084 0.05 0.057 0.087 0.127 0.114 0.21 0.026 0.083 0.044 0.173 0.054 0.269a2.541 2.541 0 0 1 0 0.533c-0.01 0.097 -0.028 0.187 -0.054 0.27a0.584 0.584 0 0 1 -0.114 0.21 0.243 0.243 0 0 1 -0.193 0.085 0.248 0.248 0 0 1 -0.195 -0.086 0.584 0.584 0 0 1 -0.118 -0.209 1.245 1.245 0 0 1 -0.056 -0.27 2.645 2.645 0 0 1 0 -0.533c0.01 -0.096 0.029 -0.186 0.056 -0.27a0.583 0.583 0 0 1 0.118 -0.209 0.25 0.25 0 0 1 0.195 -0.084zm6.486 0c0.08 0 0.144 0.028 0.193 0.084 0.05 0.057 0.087 0.127 0.114 0.21 0.027 0.083 0.044 0.173 0.054 0.269a2.541 2.541 0 0 1 0 0.533c-0.01 0.097 -0.027 0.187 -0.054 0.27a0.584 0.584 0 0 1 -0.114 0.21 0.243 0.243 0 0 1 -0.193 0.085 0.249 0.249 0 0 1 -0.195 -0.086 0.581 0.581 0 0 1 -0.117 -0.209 1.245 1.245 0 0 1 -0.056 -0.27 2.642 2.642 0 0 1 0 -0.533c0.01 -0.096 0.028 -0.186 0.056 -0.27a0.58 0.58 0 0 1 0.117 -0.209 0.25 0.25 0 0 1 0.195 -0.084zm-2.191 3.51a0.93 0.93 0 0 0 -0.463 0.109 0.908 0.908 0 0 0 -0.312 0.291c-0.08 0.122 -0.139 0.263 -0.175 0.426a2.383 2.383 0 0 0 -0.054 0.514c0 0.18 0.018 0.353 0.054 0.516 0.036 0.164 0.094 0.308 0.175 0.432a0.91 0.91 0 0 0 0.312 0.296 0.92 0.92 0 0 0 0.463 0.11c0.18 0 0.333 -0.037 0.46 -0.11a0.892 0.892 0 0 0 0.308 -0.296 1.32 1.32 0 0 0 0.174 -0.432c0.036 -0.163 0.054 -0.335 0.054 -0.516 0 -0.18 -0.018 -0.352 -0.054 -0.514a1.274 1.274 0 0 0 -0.174 -0.426 0.89 0.89 0 0 0 -0.309 -0.291 0.918 0.918 0 0 0 -0.46 -0.108zm-6.402 0.07 -0.841 0.617 0.314 0.43 0.476 -0.369v1.878h0.604v-2.557zm2.125 0 -0.841 0.617 0.314 0.43 0.477 -0.369v1.878h0.603v-2.557zm2.116 0 -0.84 0.617 0.313 0.43 0.477 -0.369v1.878h0.603v-2.557zm2.16 0.443c0.08 0 0.144 0.028 0.194 0.085a0.605 0.605 0 0 1 0.114 0.21c0.026 0.083 0.044 0.172 0.053 0.269a2.639 2.639 0 0 1 0 0.532 1.28 1.28 0 0 1 -0.053 0.27 0.585 0.585 0 0 1 -0.114 0.21 0.244 0.244 0 0 1 -0.193 0.085 0.25 0.25 0 0 1 -0.196 -0.085 0.589 0.589 0 0 1 -0.117 -0.21 1.245 1.245 0 0 1 -0.056 -0.27 2.597 2.597 0 0 1 0 -0.532c0.01 -0.097 0.028 -0.186 0.056 -0.27a0.589 0.589 0 0 1 0.117 -0.209 0.249 0.249 0 0 1 0.196 -0.085zm-6.729 3.073a0.676 0.676 0 0 0 -0.335 0.078 0.661 0.661 0 0 0 -0.227 0.211 0.91 0.91 0 0 0 -0.127 0.31c-0.027 0.118 -0.04 0.242 -0.04 0.373s0.013 0.256 0.04 0.375a0.93 0.93 0 0 0 0.127 0.313 0.65 0.65 0 0 0 0.227 0.215c0.092 0.053 0.204 0.08 0.335 0.08a0.655 0.655 0 0 0 0.334 -0.08 0.65 0.65 0 0 0 0.225 -0.215c0.057 -0.09 0.1 -0.194 0.125 -0.313a1.75 1.75 0 0 0 0.04 -0.375c0 -0.13 -0.014 -0.255 -0.04 -0.373a0.931 0.931 0 0 0 -0.125 -0.31 0.658 0.658 0 0 0 -0.225 -0.21 0.667 0.667 0 0 0 -0.334 -0.08zm3.086 0a0.675 0.675 0 0 0 -0.336 0.078 0.661 0.661 0 0 0 -0.226 0.211 0.907 0.907 0 0 0 -0.127 0.31 1.69 1.69 0 0 0 -0.04 0.373c0 0.131 0.013 0.256 0.04 0.375a0.928 0.928 0 0 0 0.127 0.313c0.058 0.09 0.134 0.162 0.226 0.215 0.093 0.053 0.205 0.08 0.336 0.08a0.655 0.655 0 0 0 0.334 -0.08 0.65 0.65 0 0 0 0.224 -0.215c0.058 -0.09 0.1 -0.194 0.126 -0.313a1.752 1.752 0 0 0 0 -0.748 0.94 0.94 0 0 0 -0.126 -0.31 0.657 0.657 0 0 0 -0.224 -0.21 0.667 0.667 0 0 0 -0.334 -0.08zm5.108 0a0.675 0.675 0 0 0 -0.336 0.078 0.661 0.661 0 0 0 -0.226 0.211 0.91 0.91 0 0 0 -0.127 0.31c-0.027 0.118 -0.04 0.242 -0.04 0.373s0.013 0.256 0.04 0.375a0.931 0.931 0 0 0 0.127 0.313c0.058 0.09 0.134 0.162 0.226 0.215 0.093 0.053 0.205 0.08 0.336 0.08 0.13 0 0.243 -0.027 0.334 -0.08a0.65 0.65 0 0 0 0.224 -0.215c0.058 -0.09 0.1 -0.194 0.126 -0.313a1.75 1.75 0 0 0 0.04 -0.375c0 -0.13 -0.014 -0.255 -0.04 -0.373a0.943 0.943 0 0 0 -0.126 -0.31 0.657 0.657 0 0 0 -0.224 -0.21 0.668 0.668 0 0 0 -0.334 -0.08zm-6.658 0.05 -0.61 0.448 0.227 0.311 0.346 -0.266v1.362h0.438v-1.856zm3.068 0 -0.61 0.448 0.227 0.311 0.346 -0.266v1.362h0.438v-1.856zm5.108 0 -0.611 0.448 0.228 0.311 0.346 -0.266v1.362h0.438v-1.856zm-9.712 0.322c0.058 0 0.105 0.02 0.14 0.062a0.421 0.421 0 0 1 0.083 0.151 0.96 0.96 0 0 1 0.04 0.196 1.932 1.932 0 0 1 0 0.386 0.954 0.954 0 0 1 -0.04 0.197 0.421 0.421 0 0 1 -0.083 0.152 0.176 0.176 0 0 1 -0.14 0.061 0.18 0.18 0 0 1 -0.141 -0.06 0.427 0.427 0 0 1 -0.085 -0.153 0.887 0.887 0 0 1 -0.041 -0.197 1.96 1.96 0 0 1 0 -0.386 0.893 0.893 0 0 1 0.04 -0.196 0.42 0.42 0 0 1 0.086 -0.151 0.181 0.181 0 0 1 0.141 -0.062zm3.086 0c0.058 0 0.104 0.02 0.14 0.062a0.421 0.421 0 0 1 0.082 0.151 0.94 0.94 0 0 1 0.04 0.196 1.906 1.906 0 0 1 0 0.386 0.93 0.93 0 0 1 -0.04 0.197 0.421 0.421 0 0 1 -0.082 0.152 0.176 0.176 0 0 1 -0.14 0.061 0.18 0.18 0 0 1 -0.141 -0.06 0.42 0.42 0 0 1 -0.086 -0.153 0.846 0.846 0 0 1 -0.04 -0.197 1.965 1.965 0 0 1 -0.011 -0.195c0 -0.057 0.004 -0.121 0.01 -0.191a0.849 0.849 0 0 1 0.041 -0.196 0.42 0.42 0 0 1 0.086 -0.151 0.182 0.182 0 0 1 0.141 -0.062zm5.108 0c0.058 0 0.104 0.02 0.14 0.062a0.421 0.421 0 0 1 0.082 0.151 0.92 0.92 0 0 1 0.04 0.196 1.963 1.963 0 0 1 0 0.386 0.943 0.943 0 0 1 -0.04 0.197 0.421 0.421 0 0 1 -0.082 0.152 0.177 0.177 0 0 1 -0.14 0.061 0.18 0.18 0 0 1 -0.142 -0.06 0.437 0.437 0 0 1 -0.085 -0.153 0.95 0.95 0 0 1 -0.04 -0.197 1.965 1.965 0 0 1 -0.011 -0.195c0 -0.057 0.004 -0.121 0.01 -0.191a0.959 0.959 0 0 1 0.04 -0.196 0.47 0.47 0 0 1 0.086 -0.151 0.181 0.181 0 0 1 0.142 -0.062zm-1.684 1.814a0.675 0.675 0 0 0 -0.336 0.079 0.66 0.66 0 0 0 -0.227 0.21 0.91 0.91 0 0 0 -0.127 0.31 1.731 1.731 0 0 0 0 0.748 0.939 0.939 0 0 0 0.127 0.314c0.059 0.09 0.134 0.162 0.227 0.215 0.093 0.053 0.205 0.08 0.336 0.08a0.66 0.66 0 0 0 0.334 -0.08 0.648 0.648 0 0 0 0.224 -0.215c0.058 -0.09 0.1 -0.195 0.126 -0.314a1.737 1.737 0 0 0 -0.001 -0.747 0.928 0.928 0 0 0 -0.125 -0.31 0.65 0.65 0 0 0 -0.224 -0.211 0.668 0.668 0 0 0 -0.334 -0.079zm3.063 0a0.676 0.676 0 0 0 -0.336 0.079 0.664 0.664 0 0 0 -0.227 0.21 0.906 0.906 0 0 0 -0.127 0.31 1.74 1.74 0 0 0 0 0.748 0.936 0.936 0 0 0 0.127 0.314 0.66 0.66 0 0 0 0.227 0.215c0.092 0.053 0.204 0.08 0.336 0.08a0.654 0.654 0 0 0 0.334 -0.08 0.648 0.648 0 0 0 0.223 -0.215c0.058 -0.09 0.1 -0.195 0.126 -0.314a1.74 1.74 0 0 0 0 -0.747 0.928 0.928 0 0 0 -0.126 -0.31 0.65 0.65 0 0 0 -0.223 -0.211 0.666 0.666 0 0 0 -0.334 -0.079zm-1.545 0.05 -0.611 0.448 0.228 0.312 0.346 -0.267v1.363h0.438v-1.856zm-1.518 0.323c0.057 0 0.104 0.02 0.14 0.061a0.42 0.42 0 0 1 0.082 0.152 0.91 0.91 0 0 1 0.04 0.195 1.966 1.966 0 0 1 0 0.387 0.951 0.951 0 0 1 -0.04 0.197 0.421 0.421 0 0 1 -0.082 0.152 0.177 0.177 0 0 1 -0.14 0.06 0.18 0.18 0 0 1 -0.142 -0.06 0.428 0.428 0 0 1 -0.085 -0.152 0.914 0.914 0 0 1 -0.04 -0.197 1.96 1.96 0 0 1 -0.011 -0.195c0 -0.058 0.003 -0.122 0.01 -0.192a0.923 0.923 0 0 1 0.041 -0.195c0.02 -0.06 0.048 -0.11 0.085 -0.152a0.181 0.181 0 0 1 0.142 -0.061zm3.063 0c0.057 0 0.104 0.02 0.14 0.061a0.42 0.42 0 0 1 0.082 0.152 0.94 0.94 0 0 1 0.04 0.195 1.91 1.91 0 0 1 0 0.387 0.93 0.93 0 0 1 -0.04 0.197 0.422 0.422 0 0 1 -0.083 0.152 0.175 0.175 0 0 1 -0.14 0.06 0.18 0.18 0 0 1 -0.141 -0.06 0.423 0.423 0 0 1 -0.085 -0.152 0.907 0.907 0 0 1 -0.04 -0.197 1.95 1.95 0 0 1 0 -0.387 0.915 0.915 0 0 1 0.04 -0.195c0.02 -0.06 0.048 -0.11 0.085 -0.152a0.182 0.182 0 0 1 0.142 -0.061zm-9.713 0.185a0.465 0.465 0 0 0 -0.232 0.055 0.456 0.456 0 0 0 -0.157 0.146 0.627 0.627 0 0 0 -0.089 0.215 1.168 1.168 0 0 0 -0.027 0.259c0 0.09 0.009 0.177 0.027 0.26a0.648 0.648 0 0 0 0.089 0.216c0.04 0.063 0.093 0.112 0.157 0.149a0.459 0.459 0 0 0 0.232 0.056c0.09 0 0.168 -0.02 0.231 -0.056a0.45 0.45 0 0 0 0.156 -0.149 0.67 0.67 0 0 0 0.087 -0.217 1.218 1.218 0 0 0 0 -0.518 0.647 0.647 0 0 0 -0.087 -0.215 0.448 0.448 0 0 0 -0.156 -0.146 0.458 0.458 0 0 0 -0.23 -0.055zm1.052 0.035 -0.423 0.31 0.158 0.217 0.24 -0.185v0.944h0.303v-1.286zm-1.052 0.224c0.04 0 0.073 0.014 0.097 0.042a0.284 0.284 0 0 1 0.057 0.105 0.69 0.69 0 0 1 0.028 0.136c0.004 0.049 0.007 0.092 0.007 0.133 0 0.04 -0.003 0.086 -0.007 0.135a0.684 0.684 0 0 1 -0.028 0.136 0.285 0.285 0 0 1 -0.057 0.105 0.123 0.123 0 0 1 -0.097 0.043 0.125 0.125 0 0 1 -0.098 -0.043 0.298 0.298 0 0 1 -0.059 -0.105 0.612 0.612 0 0 1 -0.028 -0.136 1.39 1.39 0 0 1 0 -0.268 0.62 0.62 0 0 1 0.028 -0.136 0.297 0.297 0 0 1 0.06 -0.105 0.125 0.125 0 0 1 0.097 -0.042zm3.775 1.394a0.463 0.463 0 0 0 -0.232 0.054 0.452 0.452 0 0 0 -0.157 0.146 0.621 0.621 0 0 0 -0.088 0.214 1.19 1.19 0 0 0 0 0.519 0.641 0.641 0 0 0 0.088 0.217 0.46 0.46 0 0 0 0.157 0.15 0.458 0.458 0 0 0 0.232 0.054 0.454 0.454 0 0 0 0.232 -0.055 0.45 0.45 0 0 0 0.155 -0.149 0.664 0.664 0 0 0 0.087 -0.217 1.189 1.189 0 0 0 0 -0.519 0.642 0.642 0 0 0 -0.087 -0.214 0.446 0.446 0 0 0 -0.155 -0.146 0.459 0.459 0 0 0 -0.232 -0.054zm1.052 0.034 -0.423 0.31 0.158 0.216 0.24 -0.185v0.945h0.303V22.68zm-1.052 0.223c0.04 0 0.073 0.014 0.098 0.043a0.3 0.3 0 0 1 0.057 0.105 0.643 0.643 0 0 1 0.027 0.135 1.31 1.31 0 0 1 0 0.268 0.654 0.654 0 0 1 -0.027 0.137 0.307 0.307 0 0 1 -0.057 0.105 0.124 0.124 0 0 1 -0.098 0.042 0.125 0.125 0 0 1 -0.098 -0.042 0.293 0.293 0 0 1 -0.059 -0.105 0.618 0.618 0 0 1 -0.028 -0.137 1.364 1.364 0 0 1 0 -0.268 0.612 0.612 0 0 1 0.028 -0.135 0.287 0.287 0 0 1 0.06 -0.105 0.123 0.123 0 0 1 0.097 -0.043z" fill="#000000" stroke-width="1"></path></svg>
</symbol>
  </defs>
</svg>
